<?xml version="1.0" standalone="no"?>
<!DOCTYPE svg PUBLIC "-//W3C//DTD SVG 20010904//EN"
 "http://www.w3.org/TR/2001/REC-SVG-20010904/DTD/svg10.dtd">
<svg version="1.0" xmlns="http://www.w3.org/2000/svg"
 width="1024.000000pt" height="1024.000000pt" viewBox="0 0 1024.000000 1024.000000"
 preserveAspectRatio="xMidYMid meet">
<metadata>
Created by potrace 1.14, written by Peter Selinger 2001-2017
</metadata>
<g transform="translate(0.000000,1024.000000) scale(0.100000,-0.100000)"
fill="#000000" stroke="none">
<path d="M0 5120 l0 -5120 5120 0 5120 0 0 5120 0 5120 -5120 0 -5120 0 0
-5120z m5875 4245 c39 -77 40 -81 40 -186 0 -59 3 -105 7 -103 3 2 12 20 18
39 17 50 30 34 30 -38 l1 -62 25 40 c30 49 27 80 -22 177 -19 37 -31 68 -27
68 17 -1 41 -28 70 -79 24 -41 32 -49 36 -35 3 11 5 4 6 -15 2 -56 20 -23 28
49 l6 64 14 -39 c7 -21 16 -63 20 -92 7 -61 19 -77 27 -36 14 76 16 112 7 158
-5 27 -8 52 -5 54 8 9 34 -72 43 -135 20 -137 47 -84 39 76 -5 109 6 98 24
-23 9 -70 14 -84 21 -65 9 25 11 128 2 162 -3 12 4 3 17 -19 19 -34 22 -54 21
-135 l-1 -95 24 50 c13 28 24 56 24 63 0 6 5 12 10 12 19 0 10 -51 -20 -120
-16 -38 -30 -73 -30 -79 0 -13 20 -14 36 -3 14 8 34 75 35 117 l1 30 13 -30
14 -30 1 42 c1 90 28 45 31 -51 1 -39 2 -40 9 -11 4 17 9 59 10 95 2 64 2 64
15 35 8 -17 14 -65 15 -112 0 -80 12 -112 31 -82 15 24 10 34 -7 13 -15 -17
-15 -17 0 8 9 15 17 42 17 60 1 29 2 27 9 -12 4 -25 5 -49 3 -53 -3 -4 -1 -37
3 -74 l7 -66 15 39 c10 24 16 70 17 119 0 67 -4 90 -28 139 -18 39 -22 54 -11
45 30 -25 74 -114 81 -164 6 -42 8 -46 14 -25 19 67 -3 162 -48 212 -29 32 2
19 35 -14 36 -38 62 -95 62 -137 0 -16 -13 -63 -30 -104 -29 -73 -41 -165 -20
-152 5 3 20 29 31 56 12 27 23 48 25 47 2 -2 -4 -31 -13 -66 -14 -55 -14 -65
0 -99 l15 -38 15 50 16 50 0 -94 c1 -109 15 -113 30 -8 9 61 4 129 -14 226 -4
17 1 13 14 -15 31 -67 44 -150 37 -238 -6 -73 -5 -79 8 -56 8 14 24 68 36 120
34 152 40 165 36 85 -3 -38 -16 -106 -30 -150 -14 -44 -26 -96 -25 -115 0 -32
2 -30 27 32 36 88 46 95 39 28 -3 -30 -3 -48 0 -40 11 30 105 181 109 177 3
-2 -20 -55 -51 -117 -30 -62 -55 -119 -55 -126 0 -25 18 -15 47 26 15 23 33
48 40 58 8 12 8 0 -2 -38 -8 -30 -13 -56 -11 -58 4 -4 38 53 75 123 11 22 20
36 20 30 1 -11 -24 -120 -34 -150 -6 -17 -4 -16 13 5 11 13 28 48 38 76 15 43
16 62 7 109 -11 62 -4 61 20 -3 22 -55 21 -87 -3 -140 -20 -45 -67 -95 -81
-86 -4 2 -4 -8 1 -23 5 -15 10 -37 12 -48 3 -14 14 1 40 52 20 39 38 69 41 66
5 -5 13 18 38 120 15 63 29 69 29 13 0 -48 -31 -144 -60 -186 -9 -14 -23 -36
-30 -50 -17 -35 73 62 116 124 25 38 35 46 39 33 6 -15 -15 -127 -35 -191 l-9
-29 25 24 c15 13 40 48 56 77 16 28 31 52 33 52 2 0 -1 -17 -7 -37 -17 -61
-53 -125 -93 -163 -20 -19 -46 -48 -58 -65 l-21 -30 25 21 c26 23 58 36 99 39
71 6 121 19 130 34 5 9 10 12 10 7 0 -6 -11 -21 -24 -35 -16 -18 -29 -50 -38
-98 -8 -40 -12 -73 -8 -73 8 0 80 95 112 149 16 27 28 39 28 28 0 -34 -94
-202 -144 -255 l-31 -33 30 6 c39 10 65 26 111 72 l37 38 -25 -35 c-13 -19
-47 -49 -74 -67 -27 -18 -58 -40 -69 -48 -19 -15 -17 -16 25 -10 l45 5 -30
-20 c-16 -11 -35 -20 -41 -20 -6 0 -31 -16 -57 -36 -42 -32 -117 -62 -117 -45
0 3 15 29 33 56 18 28 50 82 71 120 l38 70 -41 -45 c-39 -44 -53 -68 -29 -54
7 4 8 3 4 -5 -4 -6 -12 -9 -17 -5 -5 3 -15 1 -22 -4 -7 -5 -42 -19 -79 -31
-37 -11 -79 -28 -94 -38 -27 -17 -27 -17 -15 4 17 33 13 41 -9 14 l-20 -23 0
47 0 47 -37 -36 c-44 -42 -55 -39 -21 6 36 48 91 148 85 155 -12 12 -45 -9
-60 -40 -17 -32 -17 -32 -14 -4 7 50 -26 27 -59 -40 -17 -35 -34 -66 -39 -70
-13 -13 2 73 19 108 20 40 20 45 1 29 -26 -22 -18 15 21 91 19 39 33 77 30 85
-3 8 -1 24 5 36 8 20 9 19 4 -7 -7 -37 6 -22 38 45 41 87 40 82 6 65 -17 -9
-27 -21 -23 -27 4 -7 3 -8 -4 -4 -7 4 -17 4 -23 0 -8 -5 -8 -9 1 -14 12 -8
-25 -65 -93 -143 l-28 -32 8 40 c9 52 7 94 -8 111 -6 7 -17 33 -24 56 l-13 43
-6 -60 c-4 -33 -9 -80 -13 -105 -6 -45 -6 -45 -15 -15 -5 17 -6 100 -3 185 6
140 4 161 -14 220 -34 106 -43 107 -38 5 3 -50 0 -112 -6 -140 l-11 -50 -8 52
c-9 61 -49 171 -80 221 -34 56 -79 103 -91 95 -5 -3 -7 -1 -4 4 4 6 -3 19 -15
29 l-21 19 5 -40 c3 -22 22 -67 42 -100 48 -80 63 -157 48 -240 -7 -34 -12
-81 -12 -104 0 -63 -29 -52 -55 20 -25 69 -47 69 -39 1 l5 -47 -25 30 c-32 37
-33 21 -2 -53 13 -31 27 -73 30 -92 6 -28 -1 -20 -33 40 -23 41 -58 90 -78
110 -20 19 -30 26 -22 15 29 -36 109 -210 109 -234 0 -18 -8 -8 -30 36 -32 64
-67 105 -67 78 0 -8 4 -12 8 -10 10 7 62 -121 55 -134 -13 -20 -28 -11 -24 14
4 17 -2 31 -18 46 -16 15 -24 18 -24 9 0 -7 -3 -11 -6 -7 -3 3 -2 12 2 19 16
24 14 45 -2 24 -8 -11 -14 -16 -15 -10 -8 87 -11 110 -19 118 -4 6 -25 43 -45
81 -20 39 -45 77 -55 86 -11 9 -17 19 -14 22 3 3 0 8 -7 13 -7 4 -10 3 -5 -4
3 -6 2 -13 -3 -16 -5 -4 7 -39 28 -79 21 -39 40 -80 44 -89 12 -32 -2 -19 -23
22 -26 50 -35 52 -15 3 l15 -38 -23 25 c-12 14 -31 32 -41 40 -18 14 -19 14
-8 -7 7 -12 16 -33 22 -48 13 -35 -5 -23 -26 17 -10 20 -19 27 -25 21 -7 -7
-3 -24 9 -49 11 -21 23 -50 27 -64 11 -38 -66 63 -103 135 -33 65 -120 180
-129 171 -3 -3 -13 3 -22 12 -9 10 -13 13 -8 8 21 -28 3 -26 -26 2 -54 53 -51
24 4 -36 28 -31 54 -65 59 -76 4 -12 29 -52 54 -91 25 -38 44 -76 41 -82 -2
-7 5 -17 15 -23 11 -6 20 -18 20 -27 0 -9 3 -13 7 -10 7 8 39 -34 35 -47 -2
-5 5 -19 15 -31 10 -12 -1 -1 -24 24 -24 25 -43 50 -43 56 0 6 -16 27 -36 46
-20 18 -45 53 -55 76 -20 42 -22 43 -81 34 -17 -2 -6 -27 24 -56 25 -25 29
-26 19 -7 -6 12 -9 22 -6 22 7 0 59 -82 61 -98 1 -7 15 -23 31 -35 60 -47 106
-94 96 -100 -6 -4 -28 7 -49 23 -46 35 -54 37 -49 10 2 -11 0 -20 -6 -20 -5 0
-9 6 -9 13 0 6 -6 24 -14 39 -13 24 -12 26 2 20 15 -5 15 -4 3 11 -7 9 -17 15
-21 12 -5 -3 -12 0 -16 6 -4 8 -3 9 4 5 20 -12 13 0 -10 20 -19 15 -20 16 -9
2 9 -12 10 -18 2 -18 -6 0 -14 0 -18 0 -5 0 -9 6 -9 13 -1 6 -2 16 -3 20 0 5
-5 5 -11 2 -6 -4 -2 -21 10 -46 11 -21 17 -39 13 -39 -4 0 4 -12 18 -28 13
-15 -13 11 -58 58 -45 47 -82 80 -83 73 0 -6 10 -19 22 -27 29 -21 16 -20 -24
0 -30 16 -30 15 8 -25 22 -22 47 -53 57 -70 17 -29 17 -30 -3 -36 -22 -7 -26
-20 -10 -30 6 -3 10 1 10 9 0 9 7 16 15 16 8 0 15 -9 15 -21 0 -13 4 -18 12
-13 7 4 8 3 4 -5 -4 -6 -16 -9 -27 -6 -14 5 -20 0 -25 -19 -3 -14 -3 -30 1
-35 3 -7 -3 -11 -16 -11 -18 0 -19 3 -9 15 15 18 5 35 -21 35 -11 0 -22 6 -25
14 -3 8 -12 17 -20 20 -22 9 -7 -33 20 -56 20 -17 20 -17 -10 -3 -18 9 -39 31
-49 51 -9 20 -19 33 -22 30 -3 -3 -15 9 -27 27 -33 49 -40 65 -16 37 12 -14
26 -25 30 -25 5 0 12 -4 17 -9 5 -5 2 -6 -6 -1 -9 5 -12 4 -8 -2 4 -6 18 -9
32 -8 16 2 30 -4 38 -15 9 -13 20 -17 35 -13 12 3 22 9 22 12 0 14 -90 101
-103 101 -22 0 -27 -11 -16 -34 10 -20 9 -20 -5 -2 -9 10 -13 22 -11 26 2 3
-9 14 -25 24 -16 9 -37 30 -47 46 -9 17 -23 30 -29 30 -6 0 -19 12 -29 26 -9
14 -19 23 -22 20 -4 -3 -13 0 -22 7 -17 14 17 -38 64 -98 18 -22 40 -55 49
-73 17 -33 17 -33 -2 -23 -11 6 -25 25 -31 42 -7 19 -15 28 -22 23 -8 -4 -9
-3 -5 4 4 7 3 12 -3 12 -5 0 -36 23 -68 52 -32 29 -46 39 -30 22 15 -17 24
-33 21 -37 -4 -4 16 -30 44 -59 28 -29 56 -65 62 -82 l10 -29 -21 19 c-17 14
-23 16 -26 6 -4 -10 -9 -8 -20 5 -13 15 -14 16 -9 1 6 -19 -20 -33 -30 -16 -5
7 -2 8 7 4 8 -4 7 -1 -3 6 -9 8 -26 34 -39 58 -27 53 -59 97 -59 82 0 -6 5
-14 10 -17 15 -9 12 -22 -7 -29 -10 -4 -29 2 -46 15 -19 14 -32 18 -39 11 -14
-14 -3 -42 32 -80 16 -18 30 -41 30 -50 0 -19 -55 57 -93 128 -13 25 -22 51
-20 58 5 13 1 15 -20 6 -21 -8 -10 -54 21 -87 23 -24 25 -31 14 -47 -12 -20
-7 -25 23 -21 6 1 1 -6 -9 -14 -11 -8 -16 -15 -10 -15 5 0 14 -10 19 -22 6
-13 17 -22 24 -20 7 1 10 -2 5 -10 -5 -8 -18 0 -40 27 -19 21 -31 42 -28 46 3
5 -2 12 -10 15 -9 3 -13 11 -9 17 3 5 1 7 -4 4 -6 -4 -27 4 -46 17 -20 14 -34
19 -31 12 3 -8 -2 -12 -13 -11 -27 2 -44 15 -37 28 4 7 3 9 -1 4 -5 -4 -18 1
-29 10 -20 18 -21 17 -5 -2 16 -21 42 -74 44 -90 0 -5 6 -9 13 -8 6 2 9 -3 6
-11 -3 -8 -1 -17 4 -20 5 -3 10 6 10 19 0 14 -4 28 -9 31 -11 7 -12 34 -1 34
14 0 90 -147 83 -159 -4 -6 -18 2 -35 22 -16 17 -28 33 -27 35 0 1 -1 1 -3 0
-9 -5 -75 65 -73 76 1 6 -6 10 -15 8 -10 -2 -18 3 -18 9 0 7 -3 10 -6 6 -4 -3
-23 5 -43 20 -32 23 -32 21 8 -16 25 -23 45 -50 46 -60 1 -10 14 -34 29 -54
46 -60 23 -42 -28 22 -29 36 -55 59 -66 58 -11 -1 -16 -7 -12 -17 3 -8 -13 2
-34 23 -22 20 -43 37 -48 37 -4 0 6 -17 22 -37 16 -21 37 -51 48 -68 18 -30
18 -30 -1 -16 -11 8 -31 25 -45 37 -38 33 -178 110 -156 85 19 -21 19 -21 -2
-21 -11 0 -51 16 -88 35 -37 19 -68 35 -69 35 -10 0 14 -53 42 -94 18 -26 33
-53 33 -58 0 -10 -75 45 -85 63 -4 5 -11 9 -16 9 -6 0 -1 -13 11 -30 24 -33
21 -35 -30 -19 -19 5 -46 12 -60 15 -80 14 -77 14 -45 -1 32 -15 23 -19 -35
-17 -24 1 -24 1 5 -15 30 -15 55 -40 55 -54 0 -11 -63 9 -71 23 -4 7 -11 10
-14 7 -11 -12 6 -36 33 -47 25 -10 23 -11 -17 -7 -24 3 -50 10 -57 16 -11 9
-14 8 -14 0 0 -7 -5 -9 -11 -5 -8 4 -8 0 0 -15 13 -24 23 -28 15 -6 -8 20 4
18 41 -5 52 -33 109 -64 140 -77 29 -11 28 -12 -14 -6 -36 5 -43 4 -36 -8 7
-11 5 -11 -10 1 -13 10 -16 11 -11 2 7 -11 4 -11 -13 0 -12 7 -21 16 -21 21 0
4 -5 5 -12 1 -7 -5 -9 -2 -6 8 4 9 -4 21 -23 32 -16 9 -29 14 -29 11 0 -4 -25
16 -56 44 -53 49 -84 63 -53 24 8 -10 9 -14 2 -10 -7 4 -21 2 -32 -5 -15 -9
-17 -15 -9 -25 6 -8 9 -15 7 -17 -2 -2 -13 8 -23 22 -12 16 -14 23 -5 18 8 -4
5 -1 -6 8 -33 25 -39 31 -64 64 -13 18 -29 32 -34 32 -7 0 -7 -4 0 -11 8 -8 8
-20 2 -36 -6 -17 -5 -25 4 -29 8 -3 14 -12 14 -20 0 -19 -55 33 -80 76 -17 28
-17 31 -2 37 10 3 21 0 25 -8 5 -7 11 -11 14 -8 11 10 -12 29 -38 31 -19 2
-31 10 -37 25 -11 29 -19 30 -12 2 5 -19 4 -20 -15 -10 -11 6 -24 16 -27 21
-3 6 -14 10 -23 10 -10 0 -13 -3 -7 -8 21 -15 85 -93 85 -103 0 -6 -15 0 -32
12 -18 12 9 -18 60 -68 50 -49 92 -95 92 -101 0 -15 -51 20 -92 63 l-29 30 30
-45 c32 -49 31 -73 -3 -42 -28 27 -126 83 -127 74 -1 -4 -1 -10 0 -14 0 -4 -6
-5 -14 -2 -26 10 -16 -1 29 -35 53 -40 115 -121 92 -121 -8 0 -47 36 -87 79
-74 81 -119 114 -115 85 1 -9 7 -19 12 -22 15 -11 114 -130 114 -137 0 -3 16
-23 35 -43 19 -20 30 -39 24 -40 -6 -3 -5 -10 3 -20 12 -15 11 -16 -4 -3 -10
7 -18 10 -18 5 0 -4 -5 -3 -12 4 -7 7 -21 12 -32 13 -20 0 -20 1 -2 8 19 7 19
8 0 16 -10 4 -22 8 -25 7 -4 -1 -15 9 -25 21 -15 17 -15 19 -2 9 9 -8 24 -12
33 -10 12 2 10 9 -13 33 -26 28 -101 85 -145 111 -13 8 -15 13 -6 16 7 2 -1
13 -20 27 -32 23 -32 23 -20 2 8 -11 17 -21 22 -21 4 0 6 -4 3 -9 -3 -5 1 -15
10 -22 20 -17 77 -99 68 -99 -4 0 -33 29 -65 64 -57 62 -165 143 -176 132 -3
-3 0 -19 5 -36 7 -19 8 -28 1 -24 -5 3 -16 0 -24 -6 -12 -10 -15 -10 -15 0 0
8 -3 11 -6 7 -3 -3 -3 -11 1 -17 5 -8 10 -8 20 0 10 8 19 8 36 0 17 -10 19
-14 8 -21 -11 -7 -9 -9 8 -9 12 0 25 -5 28 -11 4 -5 39 -26 78 -45 40 -19 76
-39 81 -44 19 -19 -112 28 -150 54 -24 16 -52 26 -75 26 -62 0 -98 19 -133 71
-18 27 -36 46 -39 42 -4 -3 -7 2 -7 13 0 16 -2 17 -10 4 -7 -11 -5 -19 7 -27
9 -7 14 -13 10 -13 -4 0 7 -19 22 -42 33 -48 33 -60 2 -29 -12 12 -31 21 -44
21 -17 0 -19 -2 -7 -9 8 -6 18 -7 22 -5 4 3 5 -2 2 -10 -4 -11 4 -16 33 -21
21 -4 49 -10 63 -15 14 -5 44 -11 67 -13 44 -5 133 -45 133 -59 0 -5 6 -8 13
-7 25 5 103 -14 152 -37 28 -13 39 -21 26 -18 -18 5 -22 3 -15 -7 6 -11 5 -12
-8 -2 -8 7 -18 10 -21 7 -3 -4 -14 -3 -24 1 -21 10 -19 9 -63 19 -19 5 -46 14
-60 21 -14 7 -41 16 -60 19 -19 4 -40 8 -47 9 -7 2 -22 12 -34 23 -22 19 -22
19 -10 -3 15 -30 50 -53 69 -46 10 4 13 2 8 -5 -5 -8 2 -12 23 -12 21 0 32 -6
36 -20 3 -11 11 -20 16 -20 6 0 7 5 3 11 -4 7 -1 10 7 7 8 -3 19 -14 25 -26 6
-12 13 -19 17 -16 3 3 4 -1 3 -10 -4 -27 -14 -28 -31 -3 -16 25 -43 34 -166
62 -12 2 -28 10 -37 17 -12 10 -14 10 -8 1 10 -17 1 -16 -36 3 -16 9 -27 11
-23 5 10 -17 65 -43 65 -31 0 8 6 8 20 0 11 -6 20 -8 20 -5 0 3 18 -6 40 -20
22 -14 42 -25 46 -25 3 0 19 -9 35 -21 16 -11 38 -22 51 -24 12 -3 26 -10 32
-16 8 -9 8 -10 -2 -5 -7 4 -27 9 -44 12 -18 2 -36 10 -40 18 -5 9 -16 12 -30
8 -12 -3 -19 -1 -15 4 3 6 -4 11 -16 11 -12 1 -23 7 -25 12 -2 6 -16 8 -32 4
-16 -3 -70 2 -120 12 -127 23 -139 4 -20 -31 30 -8 63 -25 72 -37 9 -12 20
-19 24 -15 4 4 1 15 -7 24 -13 16 -9 17 51 10 88 -10 115 -17 100 -26 -7 -4
-28 -4 -46 0 -86 20 -86 -4 0 -48 36 -19 66 -38 66 -43 0 -12 -70 17 -95 40
-11 10 -31 21 -45 23 -14 3 -34 9 -45 13 -14 6 -11 0 11 -21 16 -16 23 -23 14
-16 -20 14 -34 16 -25 2 3 -6 -1 -7 -10 -3 -12 4 -13 8 -5 13 8 5 7 9 -5 13
-11 5 -14 3 -9 -5 5 -8 2 -9 -11 -4 -16 6 -16 4 -4 -11 8 -10 22 -24 33 -32
17 -13 17 -15 2 -23 -16 -9 -16 -11 1 -24 17 -14 16 -14 -5 -4 -12 6 -20 16
-16 21 4 7 -3 10 -17 9 -39 -3 -51 -1 -44 10 3 5 0 7 -8 5 -7 -3 -29 5 -49 19
-20 13 -47 27 -59 30 -16 4 -12 0 10 -12 34 -19 34 -20 12 -27 -21 -6 -19 -9
27 -41 52 -35 85 -71 76 -85 -5 -8 -72 15 -147 51 -57 28 -65 25 -29 -9 30
-30 49 -67 38 -78 -3 -4 -6 -1 -6 5 0 7 -5 12 -11 12 -5 0 -7 -6 -3 -12 5 -8
1 -8 -12 2 -29 22 -30 24 -11 17 11 -4 16 -3 12 3 -3 6 -13 10 -21 10 -9 0
-45 28 -80 62 -56 54 -64 58 -54 33 6 -17 22 -44 35 -61 27 -36 23 -50 -9 -30
-36 24 -63 28 -63 11 0 -8 6 -15 13 -15 7 0 30 -11 50 -25 28 -19 32 -25 18
-26 -10 -1 -3 -5 16 -9 l35 -7 -35 -2 c-42 -1 -184 32 -175 41 4 4 -5 5 -19 4
-20 -3 -24 0 -16 9 8 10 5 13 -15 11 -36 -2 -27 -15 33 -45 28 -14 52 -29 52
-33 0 -5 -24 -8 -54 -8 -30 0 -58 -5 -62 -11 -3 -6 -15 -9 -25 -6 -11 3 -19 1
-19 -4 0 -5 33 -9 73 -9 158 0 312 -51 316 -105 1 -5 9 -10 18 -10 9 0 18 -6
21 -13 2 -6 9 -9 14 -6 7 4 8 2 4 -4 -4 -7 -15 -8 -30 -2 -16 6 -39 4 -67 -5
-24 -8 -37 -14 -29 -15 22 -2 69 -9 125 -19 l50 -9 -42 -1 c-46 -1 -65 -16
-33 -26 11 -3 20 -10 20 -15 0 -5 15 -7 33 -5 26 3 28 2 14 -6 -21 -12 -66 -9
-86 6 -11 7 -13 7 -7 -2 9 -16 -6 -17 -22 -1 -16 16 -17 -5 -2 -33 7 -13 7
-19 0 -19 -5 0 -10 4 -10 9 0 5 -18 11 -39 13 -30 2 -37 0 -30 -8 7 -8 6 -15
-2 -20 -7 -4 -18 1 -27 12 -11 15 -13 15 -9 2 4 -11 -2 -18 -19 -22 -38 -10
-15 -53 31 -57 19 -1 19 -2 1 -6 -11 -3 -27 -15 -37 -27 -17 -20 -17 -22 3
-43 12 -13 17 -23 11 -23 -6 0 -16 6 -22 14 -6 7 -21 12 -34 11 -12 -1 -32 -3
-44 -4 -13 0 -23 -5 -23 -10 0 -14 87 -34 119 -28 19 4 31 2 34 -6 3 -7 -3
-14 -12 -14 -9 -1 -37 -6 -64 -11 -44 -9 -49 -8 -66 14 -11 14 -29 24 -42 23
-24 0 -24 0 -3 -9 12 -5 25 -15 29 -22 6 -10 5 -11 -6 0 -15 14 -58 16 -77 3
-11 -6 -10 -11 3 -25 21 -20 32 -21 15 -1 -7 9 -10 18 -6 22 3 3 6 1 6 -5 0
-7 6 -12 13 -12 7 0 22 -7 33 -16 10 -8 12 -13 4 -9 -8 4 -6 -1 5 -10 19 -16
14 -17 -82 -13 -102 4 -103 4 -103 -20 0 -23 2 -23 80 -20 101 4 106 -13 8
-29 -41 -7 -92 -19 -113 -27 -34 -12 -36 -15 -15 -16 49 -3 70 -7 77 -13 3 -4
-16 -5 -43 -3 -27 2 -40 1 -29 -2 l20 -5 -20 -9 c-17 -7 -16 -8 5 -3 63 12
183 18 177 7 -15 -23 -155 -72 -215 -74 -33 -2 -58 -7 -55 -11 3 -5 32 -6 65
-2 50 6 59 5 52 -6 -6 -10 -3 -10 11 1 12 10 41 15 89 15 41 0 71 4 71 10 0 6
-4 8 -10 6 -52 -19 -34 -4 40 32 50 25 106 48 125 52 26 5 17 -2 -36 -28 -40
-19 -75 -41 -79 -48 -5 -8 -4 -10 4 -5 6 4 33 9 59 10 26 2 35 1 20 -1 -31 -5
-37 -19 -10 -26 10 -3 5 -5 -11 -6 -31 -1 -89 -29 -96 -46 -2 -5 -20 -25 -39
-44 -27 -26 -30 -32 -13 -27 22 6 37 10 83 20 26 6 27 5 17 -18 -7 -15 -26
-28 -52 -36 -75 -22 -177 -72 -170 -83 4 -6 0 -8 -9 -4 -9 3 -24 -1 -35 -9
-16 -12 -16 -13 0 -8 9 3 17 1 17 -5 0 -16 64 8 109 41 46 35 42 17 -5 -22
-27 -22 -51 -40 -54 -40 -3 0 -11 -10 -19 -22 -13 -22 -13 -22 5 -7 10 9 54
35 96 57 59 32 76 38 71 25 -5 -15 -3 -16 8 -5 16 14 53 16 44 2 -4 -6 -11 -8
-16 -4 -6 3 -20 -2 -31 -13 -12 -10 -18 -12 -13 -4 5 10 4 12 -4 7 -6 -4 -9
-12 -6 -17 4 -5 -1 -9 -10 -9 -8 0 -18 -7 -21 -15 -6 -14 -8 -13 -20 2 -10 13
-14 14 -12 3 2 -8 -4 -14 -12 -15 -8 0 -15 -9 -15 -20 0 -13 -6 -19 -18 -17
-9 2 -17 -1 -17 -7 0 -16 23 -7 124 54 54 33 112 68 128 78 41 24 53 12 28
-29 -21 -32 -21 -34 -3 -34 11 0 24 5 31 12 6 6 19 13 28 14 12 2 11 -4 -7
-23 l-24 -26 25 13 c22 12 24 12 12 -2 -11 -14 -43 -24 -89 -30 -14 -1 -18
-28 -5 -28 4 0 14 6 21 13 9 7 11 7 8 1 -4 -7 0 -14 8 -18 9 -3 15 0 15 9 0 8
5 15 10 15 6 0 10 -7 10 -16 0 -14 2 -15 18 -3 15 13 16 12 3 -3 -7 -10 -17
-16 -21 -13 -5 3 -11 1 -14 -4 -3 -5 2 -12 12 -16 16 -6 16 -8 -3 -22 -32 -24
-166 -84 -202 -90 -41 -7 -45 14 -5 23 15 4 39 18 53 32 14 14 36 27 49 29 13
2 38 12 54 23 37 24 27 26 -15 4 -17 -8 -33 -13 -37 -10 -3 3 -25 -5 -49 -19
-42 -25 -55 -23 -30 6 6 7 -6 -3 -28 -23 -42 -39 -68 -51 -44 -21 8 10 -1 5
-19 -10 -34 -28 -59 -36 -46 -15 4 7 3 8 -5 4 -6 -4 -9 -11 -6 -16 2 -4 -8
-13 -24 -20 -35 -14 -200 -170 -180 -170 7 0 30 16 49 35 63 63 121 104 160
115 35 9 150 12 150 4 0 -2 -18 -13 -40 -24 -23 -12 -38 -25 -35 -29 2 -5 -1
-8 -8 -7 -6 0 -13 -3 -14 -9 -4 -20 36 -2 166 78 32 19 33 19 23 1 -6 -11 -41
-48 -79 -83 -37 -35 -68 -71 -68 -80 0 -9 -15 -29 -33 -45 -34 -30 -71 -84
-40 -58 13 10 17 10 22 -4 3 -9 1 -23 -6 -32 -28 -33 48 17 125 82 42 37 77
60 77 53 0 -8 -7 -20 -15 -27 -8 -7 -12 -16 -10 -21 8 -11 -42 -42 -55 -34 -6
4 -9 2 -8 -3 4 -14 -62 -93 -73 -87 -5 4 -9 2 -9 -4 0 -6 -15 -15 -32 -20 -18
-5 -25 -10 -16 -10 14 -1 16 -5 8 -26 -14 -37 2 -37 55 1 27 19 55 32 63 29 7
-2 10 -1 7 4 -3 5 0 13 6 17 7 4 9 3 5 -4 -3 -5 -1 -12 6 -14 8 -3 3 -11 -12
-20 -14 -8 -38 -23 -55 -33 -16 -10 -31 -17 -31 -14 -1 2 -11 -4 -21 -14 -11
-9 -23 -14 -28 -10 -4 5 -5 2 0 -6 6 -10 4 -12 -4 -7 -7 5 -10 14 -7 22 10 25
0 15 -32 -35 -39 -59 -39 -64 -7 -49 14 6 25 17 25 23 0 12 106 65 128 65 11
0 57 68 57 84 0 5 9 12 20 17 33 13 39 10 21 -10 -12 -13 -14 -21 -6 -26 8 -5
4 -15 -12 -33 -22 -26 -22 -26 0 -8 28 24 28 16 -2 -28 -13 -19 -27 -32 -31
-28 -3 4 -6 3 -5 -3 5 -22 -1 -36 -12 -29 -7 5 -8 3 -4 -5 5 -7 0 -22 -10 -34
-10 -12 5 0 32 26 50 48 51 48 56 24 3 -14 1 -33 -4 -42 -6 -9 -7 -23 -4 -31
3 -8 2 -13 -3 -10 -5 3 -12 -1 -15 -10 -4 -10 -2 -13 7 -9 6 4 3 -1 -8 -10
-14 -12 -16 -19 -7 -22 6 -3 9 -10 6 -15 -4 -7 -2 -8 5 -4 6 4 34 39 60 77 27
38 52 66 55 61 3 -5 -4 -46 -15 -92 -11 -45 -18 -84 -16 -87 3 -3 10 13 16 35
11 40 45 92 61 92 15 0 -7 -65 -57 -168 -28 -56 -44 -97 -35 -90 13 11 12 8
-2 -19 -18 -35 -32 -45 -22 -15 3 9 -2 6 -11 -8 -10 -14 -50 -56 -89 -95 -65
-63 -105 -118 -71 -99 72 42 163 129 194 187 15 26 28 45 31 42 3 -3 -3 -34
-13 -70 -9 -36 -15 -69 -11 -72 3 -3 1 -13 -6 -22 -6 -9 4 0 23 20 34 36 89
79 62 49 -7 -8 -13 -23 -12 -35 0 -19 1 -19 8 -1 6 17 8 17 14 3 3 -8 -5 -52
-19 -97 -14 -44 -27 -97 -30 -117 -2 -20 -22 -77 -43 -127 -40 -94 -44 -140
-9 -96 11 13 46 52 78 86 l58 62 -14 -60 c-23 -96 -11 -90 24 13 18 52 37 101
42 108 16 27 24 -40 11 -102 -7 -33 -10 -61 -8 -64 3 -2 13 7 23 20 11 13 27
24 37 24 15 0 16 -2 3 -21 -26 -36 -67 -123 -48 -100 71 84 83 97 76 84 -4 -8
-26 -40 -47 -70 -31 -42 -34 -49 -13 -30 23 21 29 22 36 10 6 -10 5 -16 -3
-19 -7 -2 -25 -13 -41 -24 -25 -17 -26 -21 -12 -29 10 -5 24 -7 33 -4 9 4 -4
-12 -28 -35 -27 -26 -36 -39 -24 -35 19 6 19 5 3 -8 -10 -7 -18 -21 -18 -30 0
-10 -4 -15 -9 -11 -19 11 -52 -42 -77 -123 -14 -46 -23 -86 -20 -89 2 -3 23
33 46 78 42 83 78 131 114 151 13 7 9 -4 -15 -39 -26 -38 -28 -44 -9 -28 l23
20 -10 -20 c-14 -27 -26 -105 -13 -85 8 13 10 12 10 -3 0 -10 5 -15 10 -12 6
4 8 10 6 14 -6 9 52 81 65 81 6 0 2 -12 -9 -27 -10 -16 -20 -35 -20 -43 -1 -8
-4 -28 -7 -45 l-6 -30 15 33 c8 17 18 32 21 32 3 0 1 -9 -5 -21 -6 -11 -9 -25
-6 -32 3 -8 5 -6 5 3 1 8 13 29 27 45 14 17 22 24 18 16 -4 -8 3 -7 21 5 27
18 27 18 22 -1 -3 -11 -11 -39 -16 -61 -6 -23 -20 -53 -32 -68 -11 -14 -17
-26 -12 -26 4 0 6 -34 5 -76 -2 -42 0 -93 4 -113 l7 -36 7 30 c4 17 8 57 9 90
1 78 15 122 50 164 l28 34 -3 -49 c-2 -27 -7 -88 -11 -137 -7 -70 -6 -87 4
-83 10 4 10 1 1 -14 -7 -10 -15 -17 -18 -15 -3 2 -7 -5 -8 -16 -1 -10 -3 -28
-4 -38 -1 -11 -5 -18 -9 -16 -12 8 -43 -75 -32 -86 7 -7 27 16 63 71 29 44 57
83 63 87 6 3 7 1 3 -6 -4 -6 -3 -17 2 -24 7 -8 -2 -42 -27 -108 -21 -53 -38
-102 -39 -110 -1 -8 -4 -36 -6 -64 -5 -47 -4 -49 9 -25 24 41 17 12 -10 -43
-14 -29 -50 -81 -81 -117 -30 -36 -62 -77 -70 -92 -23 -44 10 -29 61 28 l44
49 -36 -90 c-20 -49 -36 -95 -36 -102 0 -7 -4 -10 -8 -7 -8 5 -43 -66 -36 -73
2 -2 25 23 50 54 25 32 66 81 91 108 l46 50 -51 -97 c-27 -54 -48 -102 -45
-107 3 -5 -14 -51 -38 -104 -49 -104 -62 -117 -169 -163 -37 -16 -63 -30 -57
-32 18 -6 172 29 234 53 l61 24 -35 -30 c-69 -59 -417 -141 -386 -90 3 4 26
14 51 21 24 7 50 19 57 27 7 8 39 33 73 55 81 55 103 76 126 120 24 48 24 53
-3 34 -36 -26 -51 -21 -44 14 3 19 1 30 -5 30 -8 0 -7 5 1 15 7 8 9 22 6 31
-5 14 -9 14 -24 3 -9 -7 -14 -9 -10 -5 4 5 3 14 -2 21 -7 8 -2 19 15 35 33 31
33 68 -1 42 -5 -4 -1 1 9 10 18 17 17 18 -27 12 -52 -7 -53 -5 -35 59 7 28 7
42 -1 52 -8 10 -8 19 -1 34 6 11 11 35 11 54 0 35 0 35 -40 30 -22 -3 -53 0
-71 7 l-31 13 33 11 c27 9 34 16 34 36 0 14 7 31 15 38 11 10 11 12 1 6 -9 -5
-12 -3 -7 5 4 6 11 9 15 6 18 -10 39 33 43 88 4 49 2 57 -13 57 -9 0 -20 7
-23 16 -3 9 -13 14 -21 10 -22 -8 -30 15 -10 30 18 13 18 14 0 34 l-19 21 -18
-23 c-14 -19 -18 -20 -18 -6 0 9 5 20 11 23 6 4 8 13 5 21 -3 8 -1 13 5 11 6
-1 15 9 20 23 8 21 7 22 -3 9 -7 -9 -19 -14 -25 -12 -8 3 -15 -11 -19 -37 -12
-73 -28 -18 -20 70 6 77 6 77 -17 73 -25 -5 -42 10 -49 42 -3 18 -6 16 -21
-10 -9 -17 -16 -23 -17 -14 0 8 24 45 53 82 28 36 67 94 86 129 l33 63 -40
-39 c-22 -21 -52 -59 -65 -85 -35 -66 -97 -166 -96 -155 0 5 8 32 18 59 16 49
16 52 -6 115 -18 51 -23 87 -23 165 0 55 4 117 9 138 8 33 7 36 -6 26 -34 -29
-47 -73 -48 -162 l0 -89 -13 44 c-13 42 -11 163 4 204 4 10 -8 1 -26 -21 l-32
-40 7 35 c4 19 16 57 27 84 10 27 16 51 14 54 -3 3 -8 -3 -12 -12 -6 -16 -61
-76 -70 -76 -2 0 1 12 7 26 14 38 4 41 -25 9 -30 -32 -33 -27 -11 15 14 27 5
44 -10 20 -3 -5 -16 -15 -28 -21 -20 -11 -20 -9 4 17 27 30 59 93 59 115 0 7
-10 3 -25 -11 -16 -15 -38 -24 -61 -25 -30 -1 -34 1 -19 10 32 17 116 113 118
132 0 4 6 13 14 18 10 7 0 10 -34 8 -37 -2 -42 -1 -23 6 79 26 141 75 126 100
-3 4 18 39 47 77 70 91 72 95 50 87 -42 -15 -131 -79 -167 -120 -21 -24 -40
-42 -43 -39 -2 2 6 24 19 48 41 78 42 82 8 58 -16 -11 -39 -33 -51 -48 l-22
-27 6 38 c7 43 8 42 -40 22 -20 -8 -38 -14 -40 -12 -2 3 17 21 42 41 25 21 45
45 45 55 0 9 6 23 13 30 6 7 -7 2 -30 -12 -23 -15 -54 -29 -70 -32 l-28 -6 29
23 c41 32 104 91 88 83 -18 -10 -72 -17 -72 -11 0 3 24 19 53 36 30 16 54 37
54 45 0 21 -10 19 -68 -11 -28 -14 -52 -24 -54 -22 -2 2 14 39 36 83 37 78 38
79 9 46 -16 -19 -26 -39 -23 -44 3 -6 1 -7 -6 -3 -7 5 -26 -7 -46 -27 -19 -19
-35 -34 -35 -32 0 1 7 22 15 46 10 28 12 45 6 47 -6 2 -4 15 6 30 17 27 17 27
-17 -3 -19 -16 -38 -34 -42 -40 -5 -6 -8 -5 -8 3 0 24 38 87 75 122 20 19 41
43 46 53 9 15 8 16 -8 7 -24 -14 -76 -34 -85 -32 -3 1 -12 -5 -18 -13 -7 -8
-17 -15 -22 -15 -6 0 -27 -13 -47 -28 -20 -16 -44 -32 -55 -36 -18 -6 -18 -5
-1 21 10 16 31 45 47 66 16 20 27 37 23 37 -4 0 -41 -18 -82 -41 -88 -47 -88
-36 0 23 34 23 65 46 68 51 4 5 12 6 19 2 8 -5 11 -4 6 3 -4 6 5 18 21 26 16
9 21 16 13 16 -12 0 -11 4 4 15 35 26 3 16 -64 -21 -48 -26 -82 -37 -127 -41
-70 -6 -89 10 -25 22 20 3 55 15 77 24 48 22 117 76 108 85 -3 3 -2 6 4 6 6 0
19 12 29 28 16 25 14 24 -27 -10 -39 -31 -108 -68 -128 -68 -3 0 8 8 24 18 36
23 60 50 51 59 -3 4 -19 -5 -34 -18 -44 -40 -58 -49 -94 -59 l-33 -9 30 22
c17 12 58 47 92 77 34 30 75 65 90 78 26 22 27 22 3 11 -14 -6 -47 -29 -74
-51 -76 -60 -137 -67 -82 -9 16 16 23 30 16 33 -6 2 -1 17 15 37 13 19 23 36
21 38 -2 2 -21 -7 -41 -22 -54 -36 -77 -33 -40 5 16 17 24 30 18 30 -6 0 -21
-15 -34 -34 -17 -25 -35 -38 -66 -45 -63 -16 -83 -13 -43 7 19 9 62 43 95 76
33 32 51 52 40 43 -11 -9 -34 -21 -50 -27 -27 -10 -25 -7 15 27 74 63 207 198
170 172 -19 -13 -60 -36 -91 -50 -31 -15 -60 -32 -63 -38 -4 -6 -12 -11 -19
-11 -17 0 70 74 139 119 33 21 64 45 67 54 11 29 -30 6 -122 -69 -50 -41 -93
-74 -95 -74 -2 0 -1 12 2 28 6 35 30 62 122 132 41 32 84 67 94 79 20 22 20
22 0 15 -10 -4 -40 -22 -65 -41 -43 -30 -129 -69 -129 -57 0 2 28 22 62 44 56
37 67 56 15 29 -33 -18 -117 -38 -117 -28 0 5 17 20 38 34 21 13 45 38 55 54
l17 30 -32 -10 c-46 -13 -48 -11 -8 10 19 11 39 17 43 14 5 -3 4 4 -2 15 -9
16 -7 21 9 25 11 3 20 10 20 16 0 16 -26 13 -40 -4 -7 -8 -20 -15 -28 -15 -13
0 -12 3 4 15 17 13 15 14 -36 16 -30 1 -44 4 -30 6 14 2 49 11 78 19 74 21 58
38 -29 32 -59 -5 -67 -3 -52 8 15 11 15 13 3 14 -9 0 -6 6 10 15 l25 15 -30
-6 -30 -7 25 20 c14 11 40 28 58 37 31 16 44 30 19 21 -6 -2 -28 0 -47 4 -34
9 -33 9 17 10 28 1 55 6 59 13 4 6 3 8 -3 5 -11 -7 -83 13 -83 22 0 14 62 32
110 33 67 2 73 14 10 21 -106 13 -88 36 28 39 77 1 81 2 37 8 l-50 7 50 2 c49
3 48 3 -30 15 -44 7 -98 23 -120 35 -22 12 -31 20 -20 17 45 -11 192 -16 225
-8 l35 9 -47 8 c-26 4 -45 11 -42 16 3 5 43 20 90 35 88 26 178 63 157 64 -6
0 -24 -5 -40 -11 -15 -6 -62 -17 -103 -25 -114 -22 -177 2 -84 33 25 8 28 11
9 7 -16 -3 -61 -7 -100 -9 -67 -3 -69 -2 -40 12 l30 14 -29 -6 c-74 -15 -91
-15 -46 0 56 19 142 22 197 7 29 -8 49 -9 65 -2 23 10 23 10 -2 6 -14 -3 -41
-1 -60 4 -31 7 -27 8 35 10 51 2 29 5 -80 12 -82 5 -186 7 -230 4 -77 -4 -79
-4 -42 9 34 13 85 23 192 41 l40 6 -57 29 c-32 16 -62 38 -68 50 -11 20 -11
20 20 4 40 -21 168 -46 176 -34 3 5 4 9 2 9 -2 0 -34 11 -73 25 -82 28 -60 31
65 9 50 -8 109 -14 133 -12 l42 3 -65 19 c-36 10 -105 21 -155 25 -80 5 -135
21 -135 38 0 3 18 3 40 -1 41 -6 144 16 155 34 3 5 -11 18 -32 29 l-38 20 58
1 c31 0 65 4 75 9 9 5 37 15 62 22 l45 14 -90 22 -90 22 63 0 c39 1 61 5 57
11 -3 6 -14 10 -23 10 -9 1 -42 12 -72 26 -30 14 -43 23 -29 20 14 -3 66 -8
115 -11 l89 -6 -45 22 c-25 12 -58 31 -73 42 -16 11 -50 31 -75 44 -45 23 -44
24 7 8 22 -7 21 -4 -9 29 -18 19 -39 45 -47 56 -13 18 -12 19 4 13 10 -3 24
-11 31 -16 16 -12 102 -18 102 -6 0 4 -12 22 -27 41 -15 18 -20 27 -11 20 9
-8 25 -12 35 -10 14 3 12 7 -14 23 -18 10 -41 31 -53 47 l-20 28 50 -30 c43
-25 49 -27 40 -10 -12 22 -1 26 28 10 45 -24 172 -64 180 -56 4 5 -76 43 -143
69 -33 13 -59 28 -58 35 2 6 -3 9 -10 6 -7 -2 -24 7 -37 22 l-25 26 60 -27
c74 -33 137 -56 141 -52 2 2 -14 21 -36 42 -22 22 -40 43 -40 48 0 5 18 -11
40 -35 23 -23 44 -42 48 -40 4 1 7 -4 7 -10 0 -7 14 -14 30 -15 20 -1 23 0 8
4 -13 2 -23 9 -23 15 0 5 6 8 13 5 6 -2 23 -7 37 -11 23 -6 23 -6 5 5 -37 22
-74 61 -69 74 3 7 -2 15 -12 19 -14 5 -15 4 -4 -9 9 -11 9 -15 1 -15 -13 0
-61 48 -61 61 0 13 6 11 42 -11 35 -21 63 -27 53 -10 -3 6 14 -4 40 -21 25
-17 44 -34 40 -37 -3 -3 -19 4 -35 17 -17 12 -30 17 -30 12 0 -11 38 -33 86
-51 16 -7 23 -7 19 0 -3 6 -14 10 -23 11 -11 0 -13 2 -4 6 9 3 3 15 -19 37
-17 18 -38 48 -46 67 -14 34 -14 34 36 -15 28 -27 48 -53 45 -58 -3 -4 1 -5 9
-3 7 3 22 -3 32 -15 28 -31 34 -24 21 21 -18 61 -45 85 -115 104 -67 19 -94
38 -33 24 51 -12 112 -11 112 1 0 6 -1 10 -2 10 -2 0 -28 9 -58 20 l-55 19 47
0 c26 1 59 -4 73 -9 37 -14 134 -24 115 -11 -8 5 -35 12 -60 16 -25 4 -50 11
-56 16 -7 5 -16 9 -20 8 -5 -1 -26 1 -47 6 -26 5 -35 11 -28 18 8 8 100 -11
190 -40 9 -3 1 4 -17 16 -18 12 -38 18 -44 15 -7 -4 -8 -2 -4 4 4 6 -9 18 -31
28 -63 29 -114 64 -108 74 3 5 -5 11 -17 13 -13 2 -5 5 18 6 23 0 61 -8 85
-19 50 -22 93 -26 87 -8 -7 19 -74 36 -148 39 -49 2 -55 3 -25 6 l40 5 -25 14
c-24 14 -24 15 -2 11 26 -6 28 0 7 23 -14 16 -13 17 17 18 17 0 47 -6 65 -13
l33 -14 -16 22 c-10 12 -35 37 -57 55 -24 20 -33 32 -23 32 9 0 16 5 16 11 0
6 27 -15 60 -47 59 -57 101 -87 71 -51 -16 20 -8 22 22 6 18 -9 16 -5 -8 21
-16 17 -52 43 -80 57 -55 29 -47 42 12 22 21 -7 45 -13 53 -14 9 0 21 -4 28
-9 6 -4 12 -2 12 3 0 11 -15 15 -35 11 -5 -1 -7 1 -3 5 4 4 -5 18 -20 32 l-27
25 30 -17 c17 -10 51 -36 77 -57 28 -23 52 -36 59 -32 8 4 9 3 5 -5 -4 -6 0
-14 8 -17 39 -15 32 7 -24 75 -33 41 -60 76 -60 78 0 5 50 -26 73 -45 26 -22
23 3 -8 63 -13 27 -23 50 -21 52 2 2 22 -21 45 -52 23 -30 58 -63 79 -74 20
-10 51 -31 67 -45 17 -14 35 -26 40 -26 6 1 0 9 -12 19 -12 10 -19 21 -16 25
4 3 -2 6 -13 6 -15 0 -16 2 -5 9 12 8 8 17 -22 50 -20 23 -37 44 -37 49 0 4
10 -5 23 -19 23 -28 135 -65 173 -57 29 5 -41 45 -104 59 -29 6 -55 15 -58 21
-9 14 94 8 135 -9 19 -7 36 -11 39 -8 3 2 -10 11 -29 19 -37 15 -90 66 -70 66
17 0 46 -17 99 -56 24 -19 46 -33 48 -31 2 2 -13 36 -35 75 -22 40 -36 74 -31
77 4 3 32 -24 60 -59 29 -36 59 -67 67 -70 15 -6 15 -6 -25 57 -32 52 -23 56
17 7 17 -22 37 -40 43 -40 7 0 0 12 -13 28 -28 30 -52 67 -63 97 -4 11 19 -9
51 -45 85 -96 153 -165 153 -157 0 5 -21 30 -46 57 -25 27 -43 53 -40 59 4 5
-3 15 -14 21 -11 6 -20 15 -20 21 0 6 8 5 22 -2 18 -10 20 -9 15 5 -7 19 8 22
20 4 4 -7 17 -20 27 -28 18 -14 19 -14 8 7 -17 32 -15 50 4 27 15 -18 15 -18
5 3 -6 12 -11 41 -10 65 l0 43 19 -52 c19 -53 65 -128 94 -152 12 -10 10 2 -8
55 -13 38 -27 77 -31 87 -7 16 -4 16 40 -3 48 -21 76 -25 74 -12 -4 22 5 19
41 -14 48 -45 110 -88 116 -81 3 3 2 16 -2 31 -9 36 -53 71 -116 92 -59 19
-97 43 -98 61 0 6 -14 14 -31 18 -17 4 -28 9 -26 12 7 6 129 -28 146 -41 11
-8 13 -8 7 2 -4 7 -2 12 8 12 8 0 17 -4 20 -9 6 -9 108 -61 119 -61 4 0 7 5 7
11 0 20 -65 69 -115 85 -27 9 -55 20 -61 25 -6 5 -35 15 -65 24 l-54 15 47 -3
c46 -2 53 6 13 16 -16 4 -15 5 5 6 14 0 62 -19 108 -43 45 -24 77 -37 70 -29
-6 8 -28 23 -47 33 -20 11 -29 19 -21 20 10 0 7 5 -8 16 -13 9 -31 13 -43 9
-14 -5 -19 -3 -15 3 3 6 -8 24 -26 41 -18 17 -28 31 -21 31 23 0 88 -34 131
-68 l43 -35 -49 74 c-66 101 -70 109 -33 75 17 -17 63 -76 102 -133 39 -57 73
-103 74 -103 7 0 -30 133 -60 217 -19 53 -30 92 -25 87 15 -16 100 -192 100
-209 0 -8 4 -15 10 -15 11 0 4 41 -21 125 -10 32 -17 61 -15 62 7 8 39 -53 60
-115 23 -70 56 -132 69 -132 4 0 -3 17 -16 38 -22 35 -59 122 -52 122 2 0 14
-19 28 -42 14 -24 40 -57 59 -74 33 -31 88 -53 88 -35 0 5 -12 20 -27 33 -16
13 -35 32 -43 43 -8 11 0 7 18 -9 29 -27 47 -25 20 2 -7 7 -8 12 -2 12 6 0 19
-10 30 -22 10 -12 13 -18 5 -13 -10 6 -12 4 -6 -4 4 -7 16 -11 26 -8 11 3 17
2 14 -3 -5 -8 42 -48 84 -69 19 -11 22 -11 15 1 -4 7 -18 21 -31 31 -13 10
-23 24 -23 30 0 7 -15 23 -33 36 -34 26 -92 91 -67 76 8 -5 37 -24 63 -43 27
-18 51 -31 53 -29 4 4 -22 29 -86 80 -12 10 -20 20 -17 23 11 11 60 -19 120
-73 93 -84 227 -151 227 -113 0 15 -98 83 -187 130 -46 24 -83 45 -83 48 0 2
6 2 13 -1 55 -20 58 -19 27 12 -17 16 -30 40 -30 53 1 20 2 20 14 -8 8 -17 29
-42 47 -54 19 -13 58 -45 87 -72 75 -68 89 -65 36 7 -33 45 -76 135 -64 135 6
0 25 -21 43 -47 60 -87 92 -126 117 -142 22 -15 24 -15 17 2 -11 28 16 20 34
-11 9 -17 30 -32 52 -39 44 -13 45 -18 -38 92 -34 44 -72 96 -85 115 l-25 35
37 -28 c20 -16 54 -49 75 -75 114 -138 69 -72 -86 125 -38 49 -40 54 -15 36
37 -27 70 -64 118 -130 21 -29 42 -53 47 -53 5 0 7 49 5 113 -4 98 -3 106 7
64 8 -38 20 -56 53 -83 23 -19 62 -65 85 -102 52 -81 78 -112 96 -112 22 0 16
99 -12 180 -26 77 -31 110 -16 110 5 0 7 -10 5 -22 -2 -13 -1 -17 2 -9 9 19
76 -155 76 -198 0 -42 14 -81 28 -81 16 0 11 79 -10 160 -20 77 -27 140 -10
90 5 -14 16 -50 25 -81 11 -40 30 -71 64 -110 27 -30 51 -52 54 -49 3 3 -8 36
-24 74 -16 38 -28 73 -27 77 2 4 26 -30 53 -76 28 -47 53 -85 57 -85 10 0 -6
49 -34 105 -21 42 -49 137 -48 163 1 7 44 -69 110 -192 32 -60 71 -110 58 -74
-4 9 -10 34 -14 55 -4 21 -25 74 -46 118 -22 44 -36 76 -30 70 17 -18 109
-160 130 -202 12 -23 26 -44 31 -47 9 -6 0 42 -14 76 -6 15 -2 15 44 -2 51
-20 89 -18 73 4 -12 15 -72 126 -72 133 0 14 36 -27 87 -98 37 -52 66 -81 85
-88 26 -9 29 -8 24 5 -5 12 -2 15 11 10 10 -3 -6 17 -36 44 -30 28 -52 52 -50
54 2 3 30 -6 62 -18 31 -13 57 -21 57 -18 0 3 -12 19 -27 34 -25 26 -21 42 5
16 7 -7 12 -8 12 -4 0 5 8 2 18 -5 15 -11 15 -11 4 1 -7 8 -16 15 -20 15 -4 1
-18 7 -31 14 -17 10 -21 10 -16 1 4 -7 4 -11 -1 -9 -24 11 -114 60 -114 62 0
2 20 2 44 1 49 -3 102 -23 148 -56 l31 -22 -8 30 c-5 16 -9 41 -9 56 -1 15
-14 40 -30 57 -17 17 -26 32 -20 32 5 1 -4 5 -21 9 l-30 8 35 1 c40 1 108 -27
130 -54 11 -13 1 -11 -37 10 -74 38 -85 27 -18 -19 61 -42 83 -69 132 -161 18
-33 33 -55 33 -48 0 23 -41 121 -67 160 l-25 38 31 -29 c17 -16 41 -45 53 -63
29 -41 42 -42 35 -3 -8 35 0 40 13 8 8 -20 9 -19 9 12 1 19 -6 48 -14 64 -19
36 -19 42 0 26 22 -18 -6 45 -56 128 l-40 65 33 -24 c20 -15 49 -56 73 -104z
m-69 27 c12 -10 27 -28 34 -41 l12 -24 -28 21 c-16 12 -49 40 -74 62 l-45 41
40 -20 c22 -11 49 -29 61 -39z m-996 -112 c0 -5 -5 -10 -11 -10 -5 0 -7 5 -4
10 3 6 8 10 11 10 2 0 4 -4 4 -10z m-1015 -160 c8 -13 -5 -13 -25 0 -13 8 -13
10 2 10 9 0 20 -4 23 -10z m1638 -20 c3 -11 1 -20 -4 -20 -5 0 -9 5 -9 11 0 5
-3 8 -8 5 -4 -2 -16 2 -27 10 -18 13 -17 14 12 14 22 0 32 -5 36 -20z m-1897
-171 c3 -6 -5 -3 -20 6 -14 10 -26 19 -26 22 0 7 39 -17 46 -28z m2317 -263
c4 4 7 5 7 1 0 -20 -21 -11 -51 21 l-34 37 36 -33 c19 -18 38 -29 42 -26z
m115 -176 c12 -23 17 -38 12 -35 -6 4 -19 23 -29 43 -10 20 -28 46 -40 56 -12
11 -21 24 -21 30 1 16 52 -47 78 -94z m232 -130 c0 -6 4 -9 9 -7 5 1 9 -2 9
-7 0 -5 6 -13 14 -17 7 -5 8 -9 2 -9 -14 0 -37 27 -58 67 -22 45 -20 55 4 15
11 -18 20 -37 20 -42z m-1545 -38 c48 -37 142 -76 147 -61 4 11 90 -52 115
-83 11 -12 9 -19 -7 -38 -17 -20 -22 -21 -37 -9 -10 8 -27 25 -38 39 -34 44
-83 87 -104 93 -20 5 -20 4 -5 -24 17 -34 12 -36 -26 -9 -17 12 -27 28 -26 38
2 10 -14 31 -40 52 -23 19 -43 39 -43 44 -1 5 5 4 12 -1 6 -5 30 -24 52 -41z
m685 13 c0 4 9 -4 20 -18 11 -14 20 -27 20 -30 0 -13 -42 8 -55 26 -19 28 -19
43 0 27 8 -7 15 -9 15 -5z m-142 -74 c44 -59 82 -129 82 -151 0 -9 -31 -6 -48
4 -7 4 -10 11 -7 16 9 15 -65 163 -93 187 -23 20 -24 22 -5 17 11 -3 43 -36
71 -73z m1003 43 c5 -15 8 -29 5 -31 -2 -2 -8 10 -14 26 -13 38 -5 41 9 5z
m-776 -72 c8 -23 7 -27 -7 -27 -10 0 -58 51 -58 61 0 11 60 -21 65 -34z
m-1365 10 c0 -5 -7 -9 -15 -9 -8 0 -12 4 -9 9 3 4 9 8 15 8 5 0 9 -4 9 -8z
m509 -19 c42 -28 35 -46 -9 -23 -22 12 -120 39 -120 34 0 -2 25 -19 55 -39 51
-32 69 -55 45 -55 -36 0 -110 65 -110 96 0 26 91 17 139 -13z m792 -5 c8 -16
8 -19 -2 -16 -6 2 -16 14 -20 27 -11 27 6 19 22 -11z m136 6 c2 -19 2 -19 -4
0 -3 13 -7 15 -13 7 -5 -10 -9 -9 -13 2 -4 10 0 14 11 13 9 -2 18 -11 19 -22z
m404 9 c13 -16 12 -17 -3 -4 -10 7 -18 15 -18 17 0 8 8 3 21 -13z m74 -13 c10
-11 16 -20 13 -20 -3 0 -13 9 -23 20 -10 11 -16 20 -13 20 3 0 13 -9 23 -20z
m-670 1 c3 -5 2 -12 -3 -15 -5 -3 -9 1 -9 9 0 17 3 19 12 6z m516 -48 c13 -16
12 -17 -3 -4 -10 7 -18 15 -18 17 0 8 8 3 21 -13z m-1572 -38 c15 9 35 -45 21
-57 -5 -4 -8 -5 -5 -1 3 4 -12 25 -32 47 -21 22 -28 32 -16 22 12 -10 27 -15
32 -11z m-165 -1 c3 -8 2 -12 -4 -9 -6 3 -10 10 -10 16 0 14 7 11 14 -7z
m1651 4 c5 4 5 1 1 -6 -6 -10 -11 -10 -22 -1 -8 6 -14 14 -14 16 0 3 6 0 13
-6 8 -6 18 -7 22 -3z m-1276 -14 c10 -9 -35 -3 -49 6 -11 8 -7 9 15 4 17 -4
32 -8 34 -10z m-327 -50 l4 -37 -18 23 c-14 17 -16 26 -7 36 16 19 16 19 21
-22z m687 12 c9 -11 9 -16 0 -22 -8 -5 -9 -3 -4 6 6 10 4 12 -8 7 -11 -4 -14
-2 -10 9 6 17 8 17 22 0z m-392 -42 c-3 -3 -12 -4 -19 -1 -8 3 -5 6 6 6 11 1
17 -2 13 -5z m3037 -46 c-5 -7 -27 -37 -51 -66 -23 -29 -50 -67 -59 -85 l-17
-32 29 25 28 25 -29 -40 -30 -40 35 22 c19 13 34 27 33 32 -1 4 10 19 25 32
l27 24 -24 -27 c-14 -16 -20 -28 -14 -28 11 0 67 59 95 100 l16 25 -8 -37
c-12 -56 -41 -95 -135 -182 -47 -43 -95 -96 -105 -117 -25 -48 -42 -60 -36
-24 5 24 2 23 -35 -17 -23 -24 -35 -33 -29 -20 12 24 2 29 -20 10 -18 -18 38
61 68 94 14 15 30 24 36 21 6 -3 8 -3 4 2 -4 4 -2 15 4 24 7 9 1 6 -13 -6 -29
-27 -41 -29 -33 -8 4 8 1 15 -6 15 -15 0 30 61 84 115 23 22 49 51 59 63 18
24 18 24 -5 17 -13 -4 -30 -13 -38 -20 -25 -20 -40 -27 -40 -17 0 16 109 84
122 76 6 -4 8 -3 4 4 -3 6 -2 13 4 17 6 4 8 11 5 16 -3 5 0 6 8 3 8 -3 18 -1
22 5 3 6 11 11 16 11 6 0 7 -6 3 -12z m-3837 -34 c-3 -3 -12 -4 -19 -1 -8 3
-5 6 6 6 11 1 17 -2 13 -5z m458 -14 c-3 -5 -11 -10 -16 -10 -6 0 -7 5 -4 10
3 6 11 10 16 10 6 0 7 -4 4 -10z m-347 -24 c34 -18 78 -64 69 -73 -4 -3 -7 -1
-7 6 0 7 -4 10 -9 7 -4 -3 -16 3 -26 14 -10 11 -14 20 -9 20 5 1 -7 9 -26 20
-40 22 -33 27 8 6z m223 -43 c13 -16 12 -17 -3 -4 -10 7 -18 15 -18 17 0 8 8
3 21 -13z m827 -1 c40 -10 69 -22 65 -26 -4 -5 -2 -6 5 -2 16 9 84 -13 77 -25
-7 -10 2 -11 50 -11 29 1 29 1 5 -7 -25 -8 -25 -8 7 -15 18 -4 47 -7 65 -6 48
3 55 1 38 -10 -20 -12 -83 -3 -142 21 -26 10 -57 19 -69 19 -12 0 -53 10 -89
21 -77 25 -101 22 -156 -22 -21 -17 -47 -35 -57 -41 -16 -8 -17 -7 -8 11 14
25 51 52 63 45 4 -3 8 -1 8 5 0 5 8 12 18 14 9 3 -15 5 -55 6 -76 1 -218 -16
-243 -30 -8 -4 5 -5 30 -2 25 3 43 3 40 0 -8 -9 -150 -25 -150 -17 0 4 32 22
72 40 58 27 91 35 163 40 151 12 187 10 263 -8z m2795 -34 c-3 -24 -14 -59
-23 -78 -10 -19 -35 -80 -55 -135 -20 -55 -48 -112 -61 -126 -13 -14 -21 -29
-17 -33 4 -4 0 -4 -9 -1 -16 6 -31 -8 -34 -32 -3 -17 2 -16 31 3 14 9 25 25
25 35 0 16 3 17 18 8 14 -9 32 -8 76 5 64 19 78 16 53 -12 -11 -12 -13 -22 -7
-28 7 -7 3 -23 -10 -49 l-20 -40 20 -7 c11 -4 20 -9 20 -11 0 -2 -22 -18 -50
-36 -27 -18 -50 -35 -50 -38 0 -3 18 -3 40 -1 46 4 51 -3 15 -22 -14 -7 -25
-19 -25 -25 0 -7 -20 -31 -44 -53 l-45 -41 47 -34 c95 -69 259 -176 322 -210
36 -20 126 -59 200 -87 387 -147 543 -222 616 -294 84 -85 152 -229 188 -403
37 -178 29 -302 -24 -355 -34 -33 -57 -35 -110 -8 -56 28 -59 43 -4 19 89 -40
114 -10 114 136 0 142 -37 299 -105 440 -41 86 -96 151 -171 200 -55 37 -189
96 -248 110 -27 6 -28 5 -16 -10 8 -10 37 -27 65 -40 46 -20 111 -75 89 -75
-5 0 -43 19 -84 42 -154 84 -175 93 -202 90 -33 -4 -34 -11 -8 -45 19 -24 26
-47 15 -47 -13 0 -72 34 -92 53 -13 11 -26 18 -29 15 -3 -4 4 -11 15 -18 12
-6 19 -15 16 -21 -4 -5 -14 0 -24 13 -25 30 -60 31 -67 1 -4 -13 -14 -28 -23
-33 -14 -9 -13 -10 4 -8 13 2 20 -4 23 -17 2 -17 1 -17 -8 -5 -9 13 -12 13
-21 -2 -5 -10 -16 -18 -23 -18 -18 0 -28 -27 -21 -51 4 -13 1 -19 -9 -19 -8 0
-18 -4 -21 -10 -3 -6 1 -7 9 -4 11 4 16 0 16 -14 0 -11 8 -23 18 -25 13 -4 12
-5 -4 -6 -12 0 -24 5 -27 12 -3 9 -16 12 -37 9 -23 -3 -31 -1 -26 7 4 6 4 11
-1 10 -4 -1 -21 3 -36 9 -36 15 -37 15 -37 -3 0 -9 -12 -20 -26 -25 -14 -6
-23 -14 -20 -19 3 -4 -6 -7 -19 -5 -14 1 -23 -2 -20 -7 3 -4 -17 -20 -44 -34
-56 -28 -105 -31 -166 -10 -39 14 -39 14 -5 8 62 -12 85 -11 107 3 13 8 34 15
47 16 14 1 22 6 20 10 -3 5 -11 5 -17 1 -7 -4 -6 0 2 10 7 9 19 17 25 17 16 0
76 54 76 68 0 7 4 10 10 7 6 -3 7 1 4 9 -3 9 -7 16 -9 16 -1 0 -33 -14 -70
-31 -61 -29 -73 -31 -138 -26 -38 3 -73 10 -76 14 -5 7 -203 72 -236 77 -5 1
-16 6 -24 10 -10 7 -12 6 -6 -4 6 -10 4 -12 -9 -7 -10 4 -24 7 -33 7 -9 0 -13
6 -10 14 4 10 -4 17 -26 21 -18 4 -43 14 -56 22 -14 9 -34 17 -45 18 -12 1
-25 3 -29 4 -5 0 -7 13 -5 29 l3 27 187 0 c136 0 190 -3 200 -12 9 -10 8 -13
-8 -14 -10 -1 -22 -1 -26 0 -5 0 -8 -3 -8 -8 0 -14 29 -23 100 -31 l65 -8 -63
1 c-52 2 -60 0 -45 -10 31 -24 -2 -13 -38 11 -48 33 -111 50 -146 41 -15 -5
-35 -10 -43 -12 -8 -3 -24 -4 -34 -4 -40 0 3 -19 137 -64 149 -49 172 -52 202
-31 32 21 118 43 145 36 22 -6 17 -9 -35 -25 -67 -20 -125 -45 -125 -55 0 -11
90 -30 143 -30 35 0 65 7 91 23 50 28 53 38 19 59 -16 10 -22 18 -15 18 7 0
24 -11 38 -25 14 -14 31 -25 39 -25 8 0 12 -6 9 -14 -3 -8 1 -17 8 -22 7 -4
10 -4 6 1 -4 4 -1 14 7 21 15 15 10 84 -8 95 -5 4 -6 15 -3 26 14 45 -134 263
-170 249 -8 -3 -14 -1 -14 4 0 5 -10 15 -22 21 -19 10 -18 7 7 -19 16 -17 34
-28 39 -25 6 4 8 3 4 -2 -4 -4 4 -28 16 -54 13 -25 27 -59 31 -76 5 -23 -3
-16 -37 35 -51 76 -79 93 -297 171 -133 48 -146 51 -182 40 -51 -15 -117 -79
-125 -120 -4 -18 -11 -28 -15 -24 -5 5 -4 24 1 43 6 19 10 53 10 75 l-1 40
-15 -28 c-8 -15 -19 -25 -23 -23 -17 11 -60 -62 -53 -88 2 -5 -3 -6 -11 -3
-15 5 -37 -67 -37 -121 0 -50 -20 -1 -21 53 -1 40 -3 45 -9 25 -8 -25 -8 -25
-10 5 -2 34 -5 28 -16 -30 l-8 -40 -7 55 c-5 42 -6 34 -3 -30 3 -82 2 -84 -13
-56 -13 25 -15 51 -9 155 4 68 10 137 13 153 l6 29 18 -28 c11 -15 19 -23 19
-18 0 6 5 3 10 -5 8 -12 10 -11 10 7 0 12 -4 33 -9 46 -12 32 -4 40 23 22 32
-23 42 -18 18 8 -22 23 -31 53 -12 42 6 -3 10 -2 10 3 0 6 8 9 18 8 9 0 16 5
14 12 -1 8 2 11 8 7 7 -4 9 3 6 19 -4 22 -2 25 12 17 21 -12 62 -45 45 -36 -8
4 -13 0 -13 -11 0 -13 -3 -14 -15 -4 -8 6 -19 8 -26 4 -8 -4 -2 -12 17 -22 16
-8 31 -15 34 -14 3 0 11 -5 19 -11 12 -10 13 -7 7 17 -6 23 -4 27 8 23 8 -3
17 -1 20 6 3 7 4 6 3 -3 -3 -20 42 -82 54 -74 5 3 9 2 8 -3 -3 -20 2 -27 11
-13 7 11 10 11 10 2 0 -7 5 -10 10 -7 6 3 10 2 10 -4 0 -5 -6 -11 -12 -14 -7
-3 6 -2 28 0 27 4 62 -2 100 -15 33 -11 74 -23 93 -27 l34 -7 -34 32 -34 32
32 -21 c17 -12 36 -21 43 -21 6 0 9 -4 6 -9 -3 -5 5 -11 19 -13 38 -8 25 14
-28 46 -26 15 -46 30 -43 33 3 3 17 -4 33 -15 15 -10 38 -22 49 -26 12 -4 29
-15 39 -26 10 -11 22 -20 26 -20 5 0 31 -13 59 -30 27 -16 56 -27 62 -25 7 2
27 -7 43 -21 17 -15 24 -23 16 -19 -9 5 -12 4 -8 -3 4 -5 18 -9 32 -7 14 1 28
-2 32 -8 4 -6 1 -7 -7 -2 -8 5 -11 4 -6 -3 4 -6 12 -9 19 -6 7 2 24 -7 40 -21
15 -14 27 -21 27 -16 0 5 -5 13 -10 16 -6 4 -22 24 -36 46 -14 23 -29 37 -36
33 -6 -4 -8 -3 -5 3 4 6 -1 17 -10 24 -11 10 -14 10 -9 2 5 -9 2 -11 -8 -7 -9
3 -16 12 -16 20 0 17 -70 65 -83 57 -6 -3 -7 -1 -3 5 3 6 -3 16 -15 22 -15 8
-19 9 -15 1 4 -6 0 -11 -8 -11 -9 0 -13 6 -10 14 3 8 -7 22 -23 33 -45 32 -51
34 -59 22 -4 -7 -3 -9 4 -5 6 3 13 2 16 -3 4 -5 -2 -8 -11 -6 -10 2 -24 4 -32
4 -11 1 -10 4 3 14 17 12 12 17 -48 53 -36 21 -66 42 -66 47 0 7 20 16 67 31
18 6 20 4 16 -13 -3 -13 2 -23 16 -30 25 -14 45 -5 81 34 l25 28 -47 -7 c-29
-4 -48 -3 -48 2 0 6 22 26 49 45 26 19 51 44 54 56 8 34 -23 26 -86 -21 -119
-91 -144 -108 -155 -108 -26 0 -9 21 46 59 31 22 68 48 80 57 39 27 11 41 -31
15 -19 -11 -37 -21 -41 -21 -11 0 14 42 50 84 27 32 31 41 21 57 -9 15 -4 27
36 78 26 34 47 63 47 66 0 7 -62 -33 -100 -64 l-35 -30 27 3 c15 2 25 -1 22
-5 -7 -12 -31 -11 -56 2 -20 11 -20 11 4 36 12 14 48 42 78 63 58 40 100 80
83 80 -6 0 -16 -6 -22 -14 -6 -8 -25 -19 -41 -26 -16 -7 -27 -17 -23 -23 3 -6
1 -7 -5 -3 -12 7 -55 -19 -104 -63 -39 -35 -35 -16 11 50 26 37 36 61 30 68
-5 6 -7 9 -4 7 4 -2 21 11 39 30 28 29 86 62 86 48 0 -2 -21 -25 -47 -49 l-48
-45 60 26 c33 14 73 38 88 52 34 32 72 95 81 135 10 41 15 32 9 -15z m-3863 2
c11 -11 15 -20 8 -20 -6 0 -3 -7 8 -16 18 -14 18 -15 -4 -4 -13 7 -21 14 -18
17 3 4 -1 15 -11 25 -22 24 -8 23 17 -2z m3491 -17 c-30 -41 -94 -110 -85 -93
9 18 95 120 101 120 2 0 -5 -12 -16 -27z m-2621 5 c-93 -38 -140 -66 -190
-114 -31 -29 -62 -54 -69 -54 -21 0 -9 15 57 74 70 62 110 86 162 97 51 10 68
9 40 -3z m-113 -4 c-3 -3 -12 -4 -19 -1 -8 3 -5 6 6 6 11 1 17 -2 13 -5z
m-822 -32 c-3 -3 -11 0 -18 7 -9 10 -8 11 6 5 10 -3 15 -9 12 -12z m1112 3
c-11 -7 -26 -11 -35 -8 -9 4 -13 2 -9 -4 4 -6 0 -14 -9 -17 -25 -10 -46 -7
-38 5 9 15 64 38 89 38 19 0 19 0 2 -14z m2478 -14 c-14 -29 -35 -49 -35 -36
0 9 40 65 46 65 2 0 -2 -13 -11 -29z m-3440 -30 c-8 -8 -36 9 -30 19 3 5 1 10
-5 10 -6 0 -8 5 -4 11 4 8 13 4 25 -12 10 -13 16 -25 14 -28z m1060 40 c-6 -5
-26 -11 -45 -15 -35 -5 -35 -5 5 9 50 17 51 17 40 6z m188 2 c-7 -2 -19 -2
-25 0 -7 3 -2 5 12 5 14 0 19 -2 13 -5z m-1302 -50 c13 -16 12 -17 -3 -4 -10
7 -18 15 -18 17 0 8 8 3 21 -13z m3957 -45 c-29 -62 -77 -112 -133 -139 -34
-16 -36 -17 -15 -2 59 42 110 97 136 148 36 68 44 64 12 -7z m-3423 12 c-30
-31 -42 -37 -56 -29 -12 6 -20 5 -24 -1 -4 -6 -3 -9 2 -8 4 2 8 -1 8 -7 0 -5
-4 -8 -10 -7 -5 2 -7 0 -3 -4 4 -3 -13 -29 -38 -57 -25 -28 -53 -66 -63 -85
-13 -25 -19 -30 -24 -20 -15 39 115 210 154 203 11 -2 17 0 15 4 -3 4 1 17 9
27 14 18 14 18 15 1 0 -10 5 -15 11 -12 6 4 8 13 5 21 -4 9 2 14 16 14 20 0
18 -4 -17 -40z m245 22 c0 -8 -38 -45 -72 -71 -33 -25 -13 21 22 51 35 28 50
35 50 20z m90 -27 c-7 -8 -17 -15 -23 -15 -6 0 -2 7 9 15 25 19 30 19 14 0z
m725 -23 c-3 -3 -11 0 -18 7 -9 10 -8 11 6 5 10 -3 15 -9 12 -12z m-428 -8
c-3 -3 -12 -4 -19 -1 -8 3 -5 6 6 6 11 1 17 -2 13 -5z m-362 -14 c4 -6 3 -10
-2 -9 -22 4 -34 -2 -27 -13 4 -7 4 -10 -1 -6 -4 4 -15 3 -24 -3 -9 -6 -3 0 12
15 32 29 33 30 42 16z m572 -26 c-3 -3 -12 -4 -19 -1 -8 3 -5 6 6 6 11 1 17
-2 13 -5z m-1312 -24 c3 -5 2 -10 -4 -10 -5 0 -13 5 -16 10 -3 6 -2 10 4 10 5
0 13 -4 16 -10z m1271 -94 c10 -26 -15 -55 -59 -66 -65 -17 -85 -27 -92 -50
-4 -12 -12 -19 -20 -16 -8 3 -16 0 -19 -7 -4 -7 -4 2 0 18 7 40 52 96 95 117
41 22 88 23 95 4z m2208 -35 c3 -4 -6 -19 -19 -31 -28 -26 -30 -24 -15 14 10
26 24 33 34 17z m-2043 -19 c21 -18 38 -59 19 -47 -5 3 -11 1 -15 -5 -3 -5 -2
-10 3 -10 5 0 9 -6 9 -14 0 -8 -6 -12 -14 -9 -7 3 -13 -1 -13 -8 0 -11 -2 -11
-10 1 -6 9 -5 17 3 22 8 5 4 8 -10 8 -24 0 -43 26 -43 59 0 27 39 28 71 3z
m-2070 -9 c13 -16 12 -17 -3 -4 -10 7 -18 15 -18 17 0 8 8 3 21 -13z m4159
-11 c0 -5 -8 -17 -17 -28 -10 -10 -36 -41 -58 -69 -63 -78 -68 -82 -59 -65 17
34 122 170 131 170 2 0 3 -4 3 -8z m-4900 -22 c11 -8 7 -9 -15 -4 -37 8 -45
14 -19 14 10 0 26 -5 34 -10z m2394 -59 c-4 -17 -9 -30 -11 -27 -3 2 -2 19 2
36 9 41 17 33 9 -9z m-57 -108 c16 -23 52 -60 81 -82 28 -23 52 -44 52 -47 0
-9 -36 15 -84 57 -49 44 -107 144 -105 184 0 11 7 -1 14 -26 8 -25 27 -64 42
-86z m488 98 c3 -5 1 -12 -5 -16 -5 -3 -10 1 -10 9 0 18 6 21 15 7z m-39 -37
c-4 -16 -3 -23 3 -19 7 4 8 0 4 -10 -5 -13 -7 -14 -14 -3 -7 11 -9 10 -9 -1 0
-8 -2 -12 -5 -10 -5 6 17 69 23 69 2 0 1 -12 -2 -26z m-1006 -20 c0 -8 -19
-13 -24 -6 -3 5 1 9 9 9 8 0 15 -2 15 -3z m2873 -74 c37 -13 67 -27 67 -32 0
-4 7 -4 17 -1 12 5 14 3 8 -7 -5 -8 -4 -11 3 -6 13 8 65 -11 58 -22 -2 -4 5
-9 16 -9 22 -2 88 -43 88 -56 0 -5 -4 -5 -10 -2 -16 10 -11 -1 7 -16 10 -8 14
-9 10 -2 -4 6 -3 14 2 18 6 3 8 -3 6 -14 -2 -13 10 -28 42 -51 35 -26 43 -28
34 -13 -12 23 -6 34 15 26 8 -3 11 -10 7 -17 -14 -21 -11 -36 8 -47 19 -10 79
-68 79 -76 0 -2 -32 21 -70 52 -40 32 -75 53 -82 49 -7 -4 -8 -3 -4 4 8 14
-83 74 -102 67 -7 -3 -10 0 -7 5 3 5 -62 43 -145 85 -88 44 -148 80 -144 86 3
6 11 9 18 6 6 -2 41 -14 79 -27z m-553 10 c8 -5 11 -10 5 -10 -5 0 -17 5 -25
10 -8 5 -10 10 -5 10 6 0 17 -5 25 -10z m568 -102 c7 -6 10 -13 7 -16 -3 -3 1
-12 8 -20 10 -13 9 -15 -6 -9 -27 10 -40 -2 -25 -21 7 -9 0 -6 -16 6 -20 15
-33 19 -40 12 -14 -14 -23 -13 -29 4 -4 10 3 13 31 10 32 -3 34 -1 17 8 -11 6
-35 24 -53 40 -18 16 -39 25 -45 22 -7 -4 -9 -4 -5 1 8 8 -9 35 -22 35 -4 0
-5 -12 -2 -26 4 -20 2 -25 -8 -19 -7 4 -10 18 -6 36 3 16 1 29 -4 29 -6 0 -10
5 -10 10 0 10 179 -79 208 -102z m-508 82 c8 -5 11 -10 5 -10 -5 0 -17 5 -25
10 -8 5 -10 10 -5 10 6 0 17 -5 25 -10z m-3454 -13 c9 3 14 -2 14 -16 0 -12 4
-21 8 -21 5 0 9 -7 9 -16 0 -15 -1 -15 -12 0 -7 9 -21 16 -31 16 -34 0 -62 12
-68 27 -5 12 -1 14 14 10 11 -3 23 -1 26 5 4 6 10 6 16 0 6 -6 17 -8 24 -5z
m2104 9 c0 -2 -8 -10 -17 -17 -16 -13 -17 -12 -4 4 13 16 21 21 21 13z m1564
-5 c4 -5 -3 -7 -14 -4 -23 6 -26 13 -6 13 8 0 17 -4 20 -9z m-257 -7 c-3 -3
-12 -4 -19 -1 -8 3 -5 6 6 6 11 1 17 -2 13 -5z m198 -12 c-3 -3 -11 0 -18 7
-9 10 -8 11 6 5 10 -3 15 -9 12 -12z m-195 -26 c0 -2 -7 -7 -16 -10 -8 -3 -12
-2 -9 4 6 10 25 14 25 6z m-3416 -19 c27 -20 10 -50 -23 -42 -34 9 -39 14 -21
25 16 10 33 3 25 -11 -4 -5 -1 -9 4 -9 22 0 7 33 -19 43 -13 5 -13 6 1 6 8 1
23 -5 33 -12z m3821 3 c3 -6 -1 -7 -9 -4 -18 7 -21 14 -7 14 6 0 13 -4 16 -10z
m40 -10 c10 -11 16 -20 13 -20 -3 0 -13 9 -23 20 -10 11 -16 20 -13 20 3 0 13
-9 23 -20z m-630 -27 c24 -37 14 -35 -19 4 -15 18 -21 31 -13 27 9 -3 23 -17
32 -31z m125 22 c0 -2 -10 -9 -22 -15 -22 -11 -22 -10 -4 4 21 17 26 19 26 11z
m-3433 -20 c1 -5 -10 -9 -25 -7 -15 2 -22 -1 -17 -5 6 -4 17 -17 25 -28 9 -11
-1 -7 -21 10 -20 17 -35 32 -33 35 5 10 69 5 71 -5z m3568 -45 c3 -6 -1 -7 -9
-4 -18 7 -21 14 -7 14 6 0 13 -4 16 -10z m-12 -35 c-3 -9 -8 -14 -10 -11 -3 3
-2 9 2 15 9 16 15 13 8 -4z m83 -2 c-2 -3 -1 -16 4 -29 5 -13 5 -26 1 -29 -5
-2 -11 5 -15 18 -9 35 -7 59 5 52 6 -4 8 -9 5 -12z m61 -15 c-3 -8 -6 -5 -6 6
-1 11 2 17 5 13 3 -3 4 -12 1 -19z m348 12 c3 -5 1 -10 -4 -10 -6 0 -11 5 -11
10 0 6 2 10 4 10 3 0 8 -4 11 -10z m-439 -37 c-11 -11 -17 4 -9 23 7 18 8 18
11 1 2 -10 1 -21 -2 -24z m-36 -20 c-1 -31 -3 -35 -11 -20 -6 9 -7 26 -4 37
10 30 15 24 15 -17z m-3613 -7 c-3 -8 -1 -17 6 -20 7 -3 2 -3 -10 -1 -11 3
-46 6 -77 7 -72 2 -56 13 18 13 31 0 56 3 56 7 0 5 3 8 6 8 3 0 4 -6 1 -14z
m4577 -24 c2 -4 -6 -9 -20 -10 -13 -1 -24 3 -24 8 0 12 37 14 44 2z m-4643
-42 l-23 -20 23 -1 c13 0 18 -3 12 -6 -7 -2 -37 4 -65 14 l-53 18 60 6 c33 3
62 6 65 7 3 1 -6 -8 -19 -18z m2616 -12 c-3 -8 -6 -5 -6 6 -1 11 2 17 5 13 3
-3 4 -12 1 -19z m1143 7 c0 -8 -2 -15 -4 -15 -2 0 -6 7 -10 15 -3 8 -1 15 4
15 6 0 10 -7 10 -15z m-20 -19 c0 -6 -4 -17 -9 -24 -6 -10 -10 -7 -13 10 -3
16 0 25 9 25 7 0 13 -5 13 -11z m-3823 -22 c-3 -3 -12 -4 -19 -1 -8 3 -5 6 6
6 11 1 17 -2 13 -5z m-38 -8 c-2 -2 -26 -6 -54 -9 -34 -4 -42 -3 -25 3 25 8
87 13 79 6z m2924 -21 c-3 -9 -8 -14 -10 -11 -3 3 -2 9 2 15 9 16 15 13 8 -4z
m-230 -10 c-3 -9 -8 -14 -10 -11 -3 3 -2 9 2 15 9 16 15 13 8 -4z m1097 -5
c-6 -12 -8 -30 -4 -42 4 -13 2 -18 -4 -14 -6 3 -5 -4 1 -19 8 -17 13 -20 15
-10 2 8 8 15 13 15 6 0 8 18 3 45 -5 39 -4 44 10 39 10 -4 16 -18 16 -35 0
-16 4 -29 9 -29 5 0 12 -13 16 -30 4 -16 11 -32 16 -35 16 -10 10 -32 -8 -32
-22 0 -42 24 -44 52 -1 16 -2 17 -6 3 -2 -9 1 -27 8 -40 l12 -23 -25 23 c-24
21 -26 22 -30 5 -7 -28 -62 -24 -66 5 -4 26 1 27 34 5 25 -16 26 -16 22 8 -1
13 -8 24 -15 24 -6 0 -15 4 -20 9 -5 5 -2 6 6 1 9 -5 12 -3 9 6 -3 8 -10 13
-16 12 -6 -2 -7 8 -3 25 5 17 14 26 23 24 9 -1 18 4 22 13 3 8 8 15 11 15 3 0
1 -9 -5 -20z m-1130 0 c0 -5 -5 -10 -11 -10 -5 0 -7 5 -4 10 3 6 8 10 11 10 2
0 4 -4 4 -10z m161 -23 c-10 -9 -11 -8 -5 6 3 10 9 15 12 12 3 -3 0 -11 -7
-18z m-214 -9 c-3 -8 -6 -5 -6 6 -1 11 2 17 5 13 3 -3 4 -12 1 -19z m105 -20
c-8 -8 -9 -4 -5 13 4 13 8 18 11 10 2 -7 -1 -18 -6 -23z m-26 -5 c-10 -10 -19
5 -10 18 6 11 8 11 12 0 2 -7 1 -15 -2 -18z m-44 -15 c-8 -8 -9 -4 -5 13 4 13
8 18 11 10 2 -7 -1 -18 -6 -23z m715 16 c-3 -3 -12 -4 -19 -1 -8 3 -5 6 6 6
11 1 17 -2 13 -5z m593 2 c0 -3 -4 -8 -10 -11 -5 -3 -10 -1 -10 4 0 6 5 11 10
11 6 0 10 -2 10 -4z m-1575 -26 c-3 -5 -12 -10 -18 -10 -7 0 -6 4 3 10 19 12
23 12 15 0z m111 -17 c-10 -10 -19 5 -10 18 6 11 8 11 12 0 2 -7 1 -15 -2 -18z
m2168 -10 c4 -9 1 -21 -5 -27 -9 -8 -10 -7 -6 5 3 9 0 22 -6 28 -8 8 -8 11 0
11 6 0 14 -8 17 -17z m-1964 -3 c0 -5 -2 -10 -4 -10 -3 0 -8 5 -11 10 -3 6 -1
10 4 10 6 0 11 -4 11 -10z m833 -5 c-3 -9 -8 -14 -10 -11 -3 3 -2 9 2 15 9 16
15 13 8 -4z m1103 -13 c-8 -13 -110 -35 -134 -29 -11 3 -7 5 10 6 36 1 59 11
52 22 -3 5 -1 9 5 9 5 0 17 3 27 7 12 4 15 3 10 -5 -4 -7 -2 -12 3 -12 6 0 11
8 11 17 0 12 3 14 11 6 6 -6 8 -16 5 -21z m-644 -2 c11 0 15 -5 12 -15 -5 -11
-10 -13 -19 -5 -6 5 -14 7 -17 5 -3 -3 -8 4 -11 16 -4 16 -3 19 6 10 6 -6 19
-11 29 -11z m-420 -9 c-4 -10 -7 -11 -10 -3 -2 7 -9 9 -14 6 -6 -4 -8 -3 -5 3
10 16 36 11 29 -6z m-1599 -3 c12 -6 45 -28 72 -49 91 -68 253 -96 432 -74
120 14 368 50 413 60 19 4 21 3 10 -4 -10 -7 34 -8 135 -4 150 5 444 -16 497
-36 13 -5 60 -12 103 -16 44 -4 103 -13 130 -20 l50 -14 -80 0 c-44 0 -116 6
-160 14 -44 8 -114 15 -155 15 -41 0 -93 5 -115 11 -22 6 -139 11 -260 13
-121 1 -200 -1 -175 -5 34 -5 26 -6 -30 -4 -51 2 -69 0 -55 -6 13 -6 -3 -8
-50 -5 -43 3 -62 2 -50 -3 22 -10 -55 -17 -268 -27 -102 -4 -137 -2 -174 10
-26 9 -58 16 -72 16 -48 0 -178 71 -166 90 7 11 -46 33 -100 40 l-50 7 48 2
c27 0 58 -4 70 -11z m2550 5 c-7 -2 -19 -2 -25 0 -7 3 -2 5 12 5 14 0 19 -2
13 -5z m-1216 -69 c-3 -3 -12 -4 -19 -1 -8 3 -5 6 6 6 11 1 17 -2 13 -5z m788
-14 c30 -15 34 -20 18 -20 -27 0 -73 20 -73 32 0 12 12 10 55 -12z m1275 -31
c30 -20 66 -49 80 -64 l25 -28 -64 33 c-66 36 -121 80 -121 100 0 13 4 11 80
-41z m-3595 13 c-3 -3 -11 0 -18 7 -9 10 -8 11 6 5 10 -3 15 -9 12 -12z m2384
-23 c-7 -4 -17 -5 -22 -2 -5 3 -3 9 4 14 7 4 17 5 22 2 5 -3 3 -9 -4 -14z m93
-66 c74 -25 79 -28 48 -31 -19 -1 -66 9 -104 22 -38 13 -76 22 -85 19 -14 -4
-14 -3 -1 6 23 17 52 13 142 -16z m1093 -61 c-5 -5 -103 47 -110 58 -3 6 21
-4 54 -22 32 -18 58 -34 56 -36z m-2002 31 c-7 -2 -21 -2 -30 0 -10 3 -4 5 12
5 17 0 24 -2 18 -5z m1780 -20 c5 -26 4 -26 -9 -8 -16 22 -18 35 -5 35 5 0 11
-12 14 -27z m598 -61 c61 -67 101 -144 104 -200 2 -26 12 -67 23 -92 11 -25
22 -62 25 -84 6 -38 6 -38 -34 25 -37 60 -71 127 -122 243 -12 27 -43 81 -69
119 -27 38 -48 71 -48 73 0 15 85 -43 121 -84z m-2163 71 c-15 -2 -42 -2 -60
0 -18 2 -6 4 27 4 33 0 48 -2 33 -4z m-280 -10 c-10 -2 -28 -2 -40 0 -13 2 -5
4 17 4 22 1 32 -1 23 -4z m375 0 c-7 -2 -21 -2 -30 0 -10 3 -4 5 12 5 17 0 24
-2 18 -5z m-240 -10 c-7 -2 -21 -2 -30 0 -10 3 -4 5 12 5 17 0 24 -2 18 -5z
m370 0 c-13 -2 -35 -2 -50 0 -16 2 -5 4 22 4 28 0 40 -2 28 -4z m1144 -40 c-3
-10 -5 -2 -5 17 0 19 2 27 5 18 2 -10 2 -26 0 -35z m137 39 c3 -5 -1 -9 -9 -9
-8 0 -15 4 -15 9 0 4 4 8 9 8 6 0 12 -4 15 -8z m-1166 -9 c-10 -2 -26 -2 -35
0 -10 3 -2 5 17 5 19 0 27 -2 18 -5z m1487 -3 c3 -6 -1 -7 -9 -4 -18 7 -21 14
-7 14 6 0 13 -4 16 -10z m-2808 -6 c-3 -3 -12 -4 -19 -1 -8 3 -5 6 6 6 11 1
17 -2 13 -5z m1358 -14 c52 -8 49 -8 -30 -4 -49 3 -94 10 -100 15 -6 7 4 8 30
4 22 -3 67 -10 100 -15z m293 -15 c68 -14 133 -30 145 -36 21 -9 21 -9 -3 -4
-144 30 -250 49 -344 60 l-111 14 95 -4 c53 -2 151 -16 218 -30z m442 15 c53
-6 54 -6 20 -13 -41 -8 -80 -6 -80 5 0 4 -9 8 -19 8 -11 0 -23 5 -27 11 -5 9
1 10 22 4 16 -5 54 -11 84 -15z m573 -34 c9 -3 17 -13 16 -23 0 -11 -3 -13 -6
-5 -2 6 -10 9 -15 6 -7 -5 -8 -2 -3 6 6 10 3 12 -13 8 -14 -4 -20 -2 -15 5 4
6 -2 8 -15 5 -12 -4 -22 -2 -22 4 0 5 -4 7 -8 4 -5 -3 -28 2 -53 10 l-44 14
38 -6 c24 -3 37 -2 33 5 -3 5 15 1 41 -9 27 -10 56 -21 66 -24z m127 -6 c53
-28 106 -60 116 -72 16 -18 13 -17 -16 4 -19 15 -73 45 -119 67 -47 23 -87 43
-89 46 -15 14 20 0 108 -45z m-1617 33 c-7 -2 -19 -2 -25 0 -7 3 -2 5 12 5 14
0 19 -2 13 -5z m674 -59 c-3 -3 -12 -4 -19 -1 -8 3 -5 6 6 6 11 1 17 -2 13 -5z
m121 -34 c48 -16 112 -34 142 -39 l55 -10 -65 4 c-41 3 -98 18 -155 40 -110
42 -96 46 23 5z m1052 -117 c0 -8 -9 0 -50 45 l-45 47 48 -45 c26 -24 47 -45
47 -47z m-813 61 c-3 -3 -12 -4 -19 -1 -8 3 -5 6 6 6 11 1 17 -2 13 -5z m737
-37 c129 -135 158 -174 92 -127 -63 45 -164 160 -141 160 9 0 31 -15 49 -33z
m-5424 -40 c0 -2 -17 -19 -37 -38 l-38 -34 34 38 c33 34 41 42 41 34z m4728
-44 c-10 -2 -26 -2 -35 0 -10 3 -2 5 17 5 19 0 27 -2 18 -5z m-5118 -7 c0 -2
-8 -10 -17 -17 -16 -13 -17 -12 -4 4 13 16 21 21 21 13z m5193 -3 c-7 -2 -19
-2 -25 0 -7 3 -2 5 12 5 14 0 19 -2 13 -5z m-4899 -34 c-9 -10 -21 -19 -25
-19 -12 0 -4 31 11 40 23 14 33 -1 14 -21z m-5 -36 c-28 -33 -79 -86 -79 -80
0 3 -3 14 -6 24 -4 12 -3 14 3 6 7 -10 19 -2 48 27 40 41 59 54 34 23z m3967
-167 c13 18 14 17 9 -11 -6 -28 -5 -27 14 9 37 71 81 101 81 56 0 -11 7 -37
17 -58 l16 -37 11 49 c15 62 36 73 37 19 0 -21 4 -47 9 -58 7 -19 8 -19 15 -1
5 10 11 32 14 50 6 29 10 31 54 34 42 3 47 1 47 -19 0 -17 4 -20 24 -15 13 3
122 -10 243 -29 120 -19 268 -40 328 -47 153 -17 632 -17 759 1 94 13 100 13
113 -5 12 -17 11 -19 -14 -26 -135 -37 -514 -49 -783 -24 -142 14 -432 54
-553 77 -69 13 -84 12 -69 -3 7 -7 12 -16 12 -20 0 -16 -20 -8 -53 22 l-34 29
4 -52 4 -52 -23 36 -23 37 -17 -39 c-21 -49 -42 -50 -102 -4 l-46 35 0 -44 c0
-46 -12 -66 -27 -44 -4 7 -10 38 -13 68 l-6 55 -13 -59 c-7 -32 -11 -71 -9
-87 6 -38 2 -37 -21 9 l-19 37 -7 -37 c-9 -49 -25 -39 -26 15 l-1 42 -13 -40
c-13 -40 -13 -40 -9 30 2 40 1 62 -4 52 -4 -10 -12 -18 -16 -17 -5 1 -13 -4
-17 -12 -12 -18 -11 30 1 57 7 17 9 16 9 -10 1 -28 2 -28 15 -10 7 11 20 39
28 63 8 23 17 39 21 35 4 -3 8 0 9 8 1 8 3 -8 5 -35 4 -44 5 -47 19 -30z
m-132 -4 c-28 -91 -33 -127 -25 -184 6 -45 5 -55 -4 -48 -16 13 -39 96 -38
130 2 27 -39 -56 -60 -122 -7 -21 -16 -38 -20 -38 -10 0 -4 65 8 94 17 39 -14
5 -36 -39 -25 -50 -43 -60 -33 -19 10 38 -10 23 -46 -34 -33 -52 -38 -41 -15
33 8 27 13 51 11 53 -7 7 -50 -58 -53 -80 -2 -12 -6 -24 -10 -27 -3 -3 -3 4 0
17 8 35 -10 26 -24 -12 -7 -19 -15 -34 -18 -34 -19 3 -38 -16 -34 -33 6 -21
-7 -25 -24 -8 -8 8 -19 6 -39 -8 -27 -17 -28 -17 -21 1 6 16 5 17 -8 6 -8 -7
-13 -16 -10 -20 3 -5 1 -11 -5 -15 -6 -3 -14 4 -19 17 -8 22 -9 21 -37 -19
-16 -23 -35 -42 -41 -43 -15 0 -28 43 -20 65 4 8 2 17 -2 20 -9 5 -33 -44 -30
-61 6 -33 -11 -43 -41 -24 -12 8 -10 14 15 41 l30 31 -40 -17 c-22 -9 -45 -19
-52 -22 -6 -2 -16 -18 -22 -34 -12 -34 -39 -48 -52 -28 -6 10 -9 10 -9 2 0 -7
-10 -18 -22 -25 -13 -7 -23 -22 -23 -33 0 -17 -7 -20 -50 -22 -72 -3 -86 4
-56 26 l24 19 -36 13 c-21 7 -37 16 -37 20 0 8 37 19 69 19 13 0 45 16 71 35
60 44 72 45 26 1 -38 -35 -46 -56 -22 -56 24 0 55 34 58 65 2 21 21 48 62 90
33 33 54 50 48 39 -6 -11 -18 -27 -27 -34 -21 -17 -45 -64 -45 -86 0 -15 3
-14 24 5 13 13 49 39 79 59 31 21 76 65 102 99 26 35 50 65 55 68 10 6 -38
-104 -51 -120 -5 -5 -9 -27 -9 -49 l0 -40 60 84 c32 47 96 121 142 165 75 73
74 56 -3 -27 -16 -18 -41 -57 -54 -87 -29 -61 -32 -80 -7 -36 25 46 100 153
112 160 5 3 3 -13 -5 -36 -8 -23 -15 -46 -15 -52 0 -22 40 27 65 80 14 31 28
53 31 50 3 -3 -2 -20 -12 -38 l-17 -33 54 44 c30 24 69 57 88 74 l33 31 -17
-34 c-32 -64 -46 -111 -31 -111 18 0 50 37 75 88 24 46 46 57 39 17 -3 -14 -2
-25 2 -25 9 0 20 25 20 45 0 25 20 66 29 60 6 -3 4 -24 -5 -53z m-3690 -68 c3
-8 2 -12 -4 -9 -6 3 -10 1 -10 -6 0 -7 -2 -10 -5 -7 -5 5 4 38 10 38 2 0 6 -7
9 -16z m-19 -85 c-3 -12 -7 -24 -10 -27 -3 -3 -3 5 -1 19 6 30 5 29 10 29 3 0
3 -10 1 -21z m210 -146 c-4 -10 -8 -23 -9 -30 -1 -7 -5 -16 -9 -19 -4 -4 -7
-16 -7 -27 0 -11 -8 -26 -17 -33 -12 -8 -13 -13 -5 -14 9 0 8 -8 -5 -27 -25
-41 -73 -95 -73 -84 0 5 5 13 10 16 6 3 10 14 10 23 0 9 7 28 14 42 8 14 31
58 51 98 20 39 39 72 42 72 3 0 2 -8 -2 -17z m2735 13 c0 -3 -4 -8 -10 -11 -5
-3 -10 -1 -10 4 0 6 5 11 10 11 6 0 10 -2 10 -4z m-142 -55 c-7 -12 -19 -21
-27 -21 -10 0 -7 8 9 25 27 29 37 27 18 -4z m-2690 -73 c-21 -82 -41 -115 -33
-53 2 21 8 41 12 44 5 3 10 15 12 26 3 20 19 55 25 55 1 0 -6 -32 -16 -72z
m2592 15 c0 -19 -3 -24 -10 -17 -6 6 -8 18 -4 27 9 24 14 21 14 -10z m-86
-132 c11 -12 24 -21 30 -21 6 0 5 5 -2 12 -36 36 16 38 55 2 19 -17 24 -27 15
-31 -26 -10 -44 -35 -33 -46 25 -25 3 -74 -38 -82 -38 -7 -72 -44 -61 -66 14
-25 12 -77 -2 -81 -7 -3 6 -17 30 -31 23 -15 42 -29 42 -31 0 -2 -11 -6 -25
-8 -13 -3 -22 -2 -20 2 7 11 -83 43 -96 34 -7 -4 -9 -3 -6 3 4 6 -13 18 -37
27 -46 18 -96 57 -96 76 0 6 19 0 43 -13 77 -45 167 -62 109 -21 -25 17 -77
102 -69 111 4 3 30 1 59 -5 60 -12 67 -10 47 14 -13 16 -12 16 8 6 38 -21 39
-13 3 20 -19 18 -39 31 -45 29 -5 -1 -7 1 -2 5 4 4 -1 16 -10 27 -20 22 -24
22 47 1 11 -3 20 -1 20 5 0 6 11 11 25 11 33 0 32 5 -10 41 -37 33 -47 56 -17
40 9 -5 26 -19 36 -30z m-2624 5 c0 -8 -7 -16 -15 -20 -13 -4 -14 -2 -5 14 13
23 20 26 20 6z m-130 -26 c-33 -26 -49 -26 -19 0 13 10 29 19 34 19 6 1 -1 -8
-15 -19z m2653 -85 c15 -14 27 -30 27 -35 0 -13 -104 26 -108 42 -4 10 -2 11
9 1 18 -17 29 -16 29 2 0 21 11 19 43 -10z m-120 -70 c15 -14 27 -29 27 -32 0
-3 -8 1 -18 10 -10 10 -23 17 -29 17 -6 0 -16 7 -23 15 -22 26 12 18 43 -10z
m-2245 -99 c-2 -30 -6 -52 -9 -50 -3 2 -11 -7 -17 -21 -13 -29 -81 -105 -93
-105 -5 0 -9 8 -9 18 0 12 2 14 8 4 8 -12 34 32 88 156 13 28 26 52 29 52 3 0
5 -24 3 -54z m2218 7 c-7 -7 -26 7 -26 19 0 6 6 6 15 -2 9 -7 13 -15 11 -17z
m-2690 -38 c-11 -8 -27 -15 -35 -15 -10 0 -7 6 9 14 33 19 50 19 26 1z m2889
-81 c83 -27 115 -47 115 -71 0 -18 61 -54 81 -48 9 3 22 -1 29 -10 15 -18 -1
-20 -19 -2 -6 6 -2 -7 11 -30 14 -25 34 -46 50 -52 21 -7 28 -19 35 -52 7 -38
14 -45 54 -66 57 -28 119 -95 119 -127 0 -14 -4 -36 -10 -50 -9 -24 -13 -26
-52 -21 l-43 5 50 -18 c28 -10 70 -29 95 -43 42 -23 45 -27 45 -66 0 -41 1
-43 50 -62 28 -10 49 -24 48 -30 -2 -6 1 -11 7 -11 5 0 14 -10 21 -21 8 -17 8
-23 -2 -30 -9 -5 -10 -12 -3 -21 6 -7 15 -26 22 -41 11 -25 10 -28 -13 -37
-33 -12 -32 -20 10 -60 19 -18 42 -53 51 -76 15 -40 21 -45 80 -64 66 -22 84
-40 84 -84 0 -17 7 -27 23 -32 28 -9 37 -22 37 -58 0 -27 -2 -28 -32 -22 -39
8 -47 15 -28 26 26 16 -4 32 -67 36 -72 6 -183 57 -232 108 -19 20 -30 36 -24
36 6 0 58 -22 115 -50 133 -64 153 -69 161 -39 7 25 -6 39 -35 39 -38 0 -129
43 -170 80 -46 42 -35 53 20 20 18 -11 34 -20 37 -20 33 0 -160 200 -266 275
-42 30 -82 62 -90 71 -13 15 -11 16 11 9 45 -14 134 -79 165 -121 16 -23 45
-49 64 -58 l33 -17 -6 26 c-5 20 -4 25 5 19 9 -5 10 -2 6 9 -3 10 -2 17 3 17
24 0 5 23 -62 76 -40 31 -88 64 -105 72 -18 9 -33 19 -33 24 0 5 14 1 31 -7
38 -20 49 -14 14 9 -30 19 -24 40 8 30 43 -13 7 9 -68 41 -42 18 -88 41 -103
51 l-27 18 29 6 28 5 -61 53 c-33 29 -61 58 -61 63 0 19 39 8 76 -22 61 -48
115 -74 125 -58 8 14 -6 49 -20 49 -4 0 -43 22 -87 48 -43 26 -93 54 -111 61
-17 7 -40 22 -50 33 -18 21 -18 21 11 14 80 -20 85 -19 79 2 -3 15 -16 22 -46
27 -56 9 -135 43 -172 73 -29 24 -29 25 -5 17 14 -4 36 -13 50 -20 26 -13 110
-30 110 -22 0 7 -171 103 -200 113 -23 8 -22 9 15 14 l40 5 -40 14 c-65 22
-103 42 -109 57 -8 20 7 18 99 -12z m-2240 -284 c-25 -28 -17 -35 11 -9 19 16
28 20 31 11 3 -6 10 -9 16 -6 7 4 -15 -17 -47 -47 -32 -30 -71 -60 -85 -67
-22 -11 -20 -8 9 18 19 18 30 29 24 26 -7 -3 -14 3 -17 14 -6 24 34 77 58 77
13 0 13 -2 0 -17z m2648 -25 c11 0 10 -19 -2 -23 -5 -2 -15 7 -21 19 -10 17
-10 20 2 13 7 -5 16 -9 21 -9z m-2643 -70 c-7 -9 -15 -13 -19 -10 -3 3 1 10 9
15 21 14 24 12 10 -5z m2360 -54 c72 -20 170 -66 170 -80 0 -12 -96 22 -175
62 -39 20 -68 36 -65 37 3 0 34 -8 70 -19z m235 -206 l40 -36 -43 23 c-24 13
-60 38 -80 56 l-37 33 40 -20 c22 -11 58 -36 80 -56z m167 -303 c59 -43 74
-59 64 -69 -14 -14 -171 116 -179 149 -5 18 -1 17 26 -9 18 -17 58 -49 89 -71z
m88 -87 c0 -8 -6 -15 -14 -15 -20 0 -29 17 -14 23 22 9 28 7 28 -8z m-2580
-98 c0 -2 -12 -14 -27 -28 l-28 -24 24 28 c23 25 31 32 31 24z m-100 -108 c-6
-13 -23 -44 -39 -69 -41 -63 -38 -70 11 -25 36 35 38 36 21 10 -28 -40 -63
-71 -63 -56 0 7 -5 9 -11 6 -6 -4 -2 10 9 31 11 22 27 57 37 79 22 49 38 70
42 58 2 -6 -1 -21 -7 -34z m3012 -78 c21 -9 21 -10 3 -11 -17 -1 -17 -3 5 -11
19 -8 21 -12 11 -19 -11 -6 -8 -9 9 -12 21 -3 25 -9 27 -51 2 -31 0 -46 -7
-42 -6 3 -7 0 -4 -9 4 -10 -1 -18 -10 -22 -15 -6 -15 -8 -2 -23 16 -17 38
-100 30 -113 -5 -8 -32 0 -52 15 -9 7 -9 13 -1 23 13 16 -4 44 -26 44 -7 0
-28 19 -46 43 -18 23 -55 66 -83 96 -41 44 -43 48 -13 23 21 -18 44 -32 51
-32 7 0 33 -13 57 -30 24 -16 46 -25 47 -20 2 6 9 7 15 4 7 -4 1 4 -12 16 -23
22 -23 24 -5 30 18 7 17 8 -4 21 -26 16 -29 31 -4 23 9 -3 -4 8 -30 25 -27 17
-48 32 -48 34 0 7 72 5 92 -2z m-69 -258 c20 -14 37 -34 37 -44 0 -16 -4 -17
-30 -8 -35 13 -91 73 -120 129 l-20 40 47 -46 c27 -26 65 -58 86 -71z m-3253
43 c0 -3 -4 -8 -10 -11 -5 -3 -10 -1 -10 4 0 6 5 11 10 11 6 0 10 -2 10 -4z
m273 -72 c7 -7 -22 -45 -88 -119 -31 -34 -28 -28 17 42 53 82 59 89 71 77z
m2932 -40 c14 -9 25 -23 25 -31 0 -11 -7 -9 -30 7 -46 33 -41 54 5 24z m177
-41 c14 4 22 -2 28 -19 11 -28 3 -57 -14 -47 -6 3 -8 3 -4 -2 4 -4 18 -13 30
-19 32 -16 36 -46 6 -46 -19 -1 -16 -4 17 -22 81 -41 97 -79 50 -120 -13 -11
-23 -24 -20 -27 2 -4 -6 -7 -18 -6 -24 0 -36 -17 -16 -24 7 -2 9 1 4 9 -5 9
-4 11 3 6 7 -4 17 -17 24 -29 10 -20 10 -21 -5 -8 -26 21 -20 1 13 -44 63 -86
82 -125 76 -150 -8 -31 -25 -33 -19 -2 3 16 -7 37 -33 68 -20 24 -50 72 -67
106 -21 43 -34 59 -40 50 -5 -7 -6 -4 -2 10 3 12 -1 35 -9 52 -22 42 -21 43
20 19 29 -17 37 -19 44 -7 6 8 4 16 -3 21 -9 6 -9 8 1 8 7 0 10 5 7 10 -4 6
-11 8 -16 4 -5 -3 -8 -1 -7 4 4 14 -74 95 -105 109 -15 7 -27 20 -27 28 0 8
-11 33 -25 55 -14 22 -25 41 -25 43 0 2 26 -5 57 -15 31 -11 65 -17 75 -15z
m-136 -140 c14 -25 23 -47 20 -50 -3 -3 -9 3 -12 13 -4 10 -23 42 -43 69 -22
32 -27 43 -13 31 12 -10 34 -39 48 -63z m87 -59 c10 -10 9 -24 -2 -24 -10 0
-31 55 -30 79 0 9 6 2 12 -16 7 -17 15 -35 20 -39z m41 -146 c22 -22 24 -28 9
-20 -22 12 -72 71 -92 109 -22 42 -11 36 20 -11 17 -26 46 -61 63 -78z m-53
-29 c27 -32 23 -47 -5 -20 -14 13 -29 38 -35 55 -10 30 -10 30 5 9 9 -12 24
-32 35 -44z m-3396 2 c17 -7 15 -9 -15 -19 -19 -6 -57 -13 -85 -17 -27 -4 -91
-24 -142 -46 -51 -21 -98 -39 -105 -39 -9 0 -9 -3 2 -11 12 -9 12 -10 -4 -5
-10 4 -45 -3 -77 -15 -62 -23 -101 -20 -79 6 6 8 36 21 65 30 29 8 82 28 117
44 136 61 273 91 323 72z m3449 -128 c68 -61 89 -57 41 7 -14 19 -25 35 -25
36 0 10 66 -27 95 -53 39 -35 48 -61 15 -43 -16 9 -20 8 -20 -5 0 -8 5 -15 10
-15 6 0 10 -5 10 -10 0 -7 -6 -7 -20 0 -17 9 -15 3 10 -32 16 -24 38 -67 49
-95 l21 -53 -23 0 c-31 0 -39 -10 -25 -29 6 -9 -7 4 -30 29 -23 25 -40 50 -38
55 2 6 -22 34 -52 63 -32 29 -49 52 -40 52 8 0 46 -32 83 -72 38 -39 70 -67
72 -61 7 19 -37 94 -49 87 -7 -4 -8 -3 -4 4 4 7 -9 21 -31 35 -38 25 -193 178
-193 192 0 13 94 -47 144 -92z m6 45 c0 -6 -6 -5 -15 2 -8 7 -15 14 -15 16 0
2 7 1 15 -2 8 -4 15 -11 15 -16z m-3719 -89 c-55 -6 -95 -16 -115 -29 l-31
-20 70 -1 c84 -1 70 -7 -90 -40 -105 -22 -108 -24 -70 -31 22 -4 84 -5 138 -1
53 3 97 3 97 0 0 -22 -308 -54 -322 -34 -10 17 14 45 54 63 20 9 35 21 31 27
-3 6 -1 7 5 3 13 -8 86 3 78 12 -9 8 38 40 75 50 19 6 63 10 99 10 l65 -1 -84
-8z m3579 -93 c0 -12 -14 5 -31 39 -8 16 -6 15 10 -4 12 -13 21 -28 21 -35z
m-3831 20 c-2 -2 -15 -9 -29 -15 -24 -11 -24 -11 -6 3 16 13 49 24 35 12z
m4024 -176 c85 -112 147 -225 147 -270 l0 -31 -24 28 -24 28 -7 -25 c-3 -14 1
-45 9 -69 9 -24 13 -47 10 -52 -11 -19 -22 -8 -29 29 -3 20 -17 57 -31 81 -28
51 -25 69 4 22 16 -26 21 -29 26 -16 18 48 -4 105 -83 215 -51 70 -131 203
-131 217 1 11 46 -42 133 -157z m-4159 -121 c14 -21 12 -49 -5 -49 -4 0 -6 7
-2 17 5 14 1 15 -27 9 -19 -3 -37 -11 -40 -16 -7 -11 -70 16 -70 30 0 12 50
28 92 29 27 1 41 -5 52 -20z m4075 -174 c7 -8 11 -21 8 -29 -9 -22 -50 -20
-72 4 -37 40 23 64 64 25z m107 -66 c45 -27 44 -43 -1 -35 -26 5 -35 3 -35 -7
0 -19 55 -69 65 -60 4 5 5 2 1 -5 -4 -7 2 -38 14 -69 17 -45 39 -73 108 -142
94 -92 125 -142 120 -193 -3 -36 -28 -52 -28 -17 0 44 -47 115 -133 202 -78
79 -90 96 -103 146 -8 31 -31 82 -50 115 -27 45 -32 61 -23 72 15 19 26 18 65
-7z m24 -75 c0 -8 -4 -12 -10 -9 -5 3 -10 10 -10 16 0 5 5 9 10 9 6 0 10 -7
10 -16z m-79 -54 c16 -9 49 -58 49 -74 0 -5 -97 38 -107 47 -3 4 -3 13 0 22 7
17 30 19 58 5z m7 -247 c41 -25 102 -85 118 -115 21 -40 17 -48 -6 -11 -22 36
-77 70 -92 55 -5 -5 -3 -25 5 -50 15 -42 15 -42 -10 -42 -13 0 -22 4 -19 8 2
4 -4 27 -15 51 -25 56 -36 121 -20 121 6 0 24 -8 39 -17z m162 -198 c0 -16
-27 -45 -41 -45 -5 0 -9 5 -9 11 0 5 -4 7 -10 4 -5 -3 -10 -4 -10 0 0 3 12 11
28 17 21 9 23 12 10 15 -28 7 -21 21 7 15 14 -2 25 -10 25 -17z m-15 -88 c61
-62 67 -81 47 -131 -14 -36 -16 -37 -60 -34 -57 4 -68 25 -15 30 34 3 38 6 41
34 3 28 -4 38 -52 80 -59 52 -69 74 -34 74 13 0 42 -21 73 -53z m-112 -118 c8
-11 13 -28 11 -37 -3 -11 8 -24 28 -37 22 -14 38 -37 52 -77 12 -32 44 -83 75
-120 69 -81 92 -132 90 -200 -2 -29 1 -72 5 -95 8 -43 1 -83 -13 -83 -5 0 -11
23 -15 51 -8 60 -32 126 -56 154 -42 49 -31 63 14 19 21 -21 26 -23 26 -10 0
49 -84 161 -166 221 -34 26 -65 53 -68 61 -7 18 -4 18 39 -7 20 -12 38 -19 42
-16 11 12 -34 73 -75 100 -32 22 -42 35 -42 56 0 46 28 56 53 20z"/>
<path d="M5660 9251 c0 -23 49 -106 79 -135 40 -38 40 -18 2 49 -31 53 -81
107 -81 86z"/>
<path d="M4715 9221 c8 -17 22 -31 31 -31 20 0 2 35 -27 50 -20 11 -20 11 -4
-19z"/>
<path d="M4740 9168 c1 -21 26 -48 44 -48 14 0 15 3 5 23 -18 34 -49 50 -49
25z"/>
<path d="M5881 9154 c0 -11 3 -14 6 -6 3 7 2 16 -1 19 -3 4 -6 -2 -5 -13z"/>
<path d="M6093 9089 c3 -22 8 -43 11 -46 12 -13 16 6 10 46 -9 54 -28 54 -21
0z"/>
<path d="M3875 9090 c3 -5 8 -10 11 -10 2 0 4 5 4 10 0 6 -5 10 -11 10 -5 0
-7 -4 -4 -10z"/>
<path d="M4800 9091 c0 -5 5 -13 10 -16 6 -3 10 -2 10 4 0 5 -4 13 -10 16 -5
3 -10 2 -10 -4z"/>
<path d="M5710 9096 c0 -15 29 -74 40 -81 6 -4 2 13 -10 36 -24 47 -30 56 -30
45z"/>
<path d="M4010 9071 c0 -5 7 -11 14 -14 10 -4 13 -1 9 9 -6 15 -23 19 -23 5z"/>
<path d="M6221 9064 c0 -11 3 -14 6 -6 3 7 2 16 -1 19 -3 4 -6 -2 -5 -13z"/>
<path d="M4345 9050 c10 -11 20 -20 23 -20 3 0 -3 9 -13 20 -10 11 -20 20 -23
20 -3 0 3 -9 13 -20z"/>
<path d="M6040 9010 c0 -22 5 -40 10 -40 6 0 10 18 10 40 0 22 -4 40 -10 40
-5 0 -10 -18 -10 -40z"/>
<path d="M4030 9000 c0 -16 47 -60 65 -60 22 0 20 3 -25 39 -22 17 -40 27 -40
21z"/>
<path d="M4215 8988 c22 -11 49 -28 60 -37 l20 -16 -20 24 c-11 13 -34 30 -52
37 -49 21 -53 16 -8 -8z"/>
<path d="M5430 9000 c0 -6 7 -10 15 -10 8 0 15 2 15 4 0 2 -7 6 -15 10 -8 3
-15 1 -15 -4z"/>
<path d="M6241 8998 c0 -9 -4 -25 -7 -35 -5 -14 -4 -15 5 -7 7 7 11 22 8 35
-2 13 -5 16 -6 7z"/>
<path d="M4372 8988 c2 -6 10 -14 16 -16 7 -2 10 2 6 12 -7 18 -28 22 -22 4z"/>
<path d="M5300 8980 c6 -11 13 -20 16 -20 2 0 0 9 -6 20 -6 11 -13 20 -16 20
-2 0 0 -9 6 -20z"/>
<path d="M4789 8946 c13 -16 51 -41 51 -33 0 2 -15 14 -32 27 -21 15 -28 17
-19 6z"/>
<path d="M3681 8873 c12 -31 19 -67 16 -79 -2 -14 5 -34 19 -51 l23 -28 -1 43
c0 28 -6 45 -17 52 -11 6 -12 9 -3 10 9 0 7 8 -7 26 -12 15 -21 31 -21 37 0
10 30 -19 68 -68 12 -15 22 -25 22 -21 0 12 -67 96 -94 117 l-25 19 20 -57z"/>
<path d="M3935 8910 c3 -5 8 -10 11 -10 2 0 4 5 4 10 0 6 -5 10 -11 10 -5 0
-7 -4 -4 -10z"/>
<path d="M4030 8900 c0 -5 5 -10 11 -10 5 0 7 5 4 10 -3 6 -8 10 -11 10 -2 0
-4 -4 -4 -10z"/>
<path d="M4431 8897 c2 -1 13 -9 24 -17 19 -14 19 -14 6 3 -7 9 -18 17 -24 17
-6 0 -8 -1 -6 -3z"/>
<path d="M4053 8866 c0 -8 6 -12 14 -9 7 3 10 9 7 14 -8 14 -21 11 -21 -5z"/>
<path d="M3520 8843 c0 -11 11 -30 24 -42 l23 -22 -4 25 c-3 14 -14 33 -24 42
-18 16 -19 16 -19 -3z"/>
<path d="M6400 8839 c0 -5 5 -7 10 -4 6 3 10 8 10 11 0 2 -4 4 -10 4 -5 0 -10
-5 -10 -11z"/>
<path d="M3600 8785 c0 -32 38 -85 60 -85 30 0 25 16 -20 62 -32 34 -40 38
-40 23z"/>
<path d="M4669 8757 c12 -15 5 -28 -12 -22 -7 3 -25 7 -40 9 -23 4 -26 2 -18
-8 6 -7 7 -17 3 -21 -4 -5 -2 -5 4 -2 7 4 23 -5 38 -20 14 -14 26 -22 26 -17
0 5 4 5 8 -1 4 -5 36 -23 71 -40 36 -16 82 -43 104 -58 62 -45 63 -20 2 73
-30 46 -55 89 -55 96 0 7 -5 16 -10 19 -6 4 -2 -16 9 -44 10 -28 17 -51 15
-51 -2 0 -26 14 -54 30 -28 17 -55 28 -60 25 -5 -3 -12 0 -16 6 -5 8 -3 9 7 4
8 -5 5 1 -5 13 -20 24 -36 31 -17 9z"/>
<path d="M3499 8712 c11 -20 72 -55 81 -46 6 6 -23 29 -63 50 -27 14 -28 14
-18 -4z"/>
<path d="M4860 8716 c0 -2 7 -7 16 -10 8 -3 12 -2 9 4 -6 10 -25 14 -25 6z"/>
<path d="M3187 8689 c7 -7 15 -10 18 -7 3 3 -2 9 -12 12 -14 6 -15 5 -6 -5z"/>
<path d="M3060 8675 c0 -14 92 -107 98 -100 4 3 -17 29 -46 58 -29 28 -52 47
-52 42z"/>
<path d="M5012 8620 c22 -22 42 -40 43 -40 12 0 11 31 -1 41 -12 10 -13 9 -8
-7 5 -13 -3 -9 -27 14 -50 46 -54 40 -7 -8z"/>
<path d="M5576 8637 c3 -10 9 -15 12 -12 3 3 0 11 -7 18 -10 9 -11 8 -5 -6z"/>
<path d="M6080 8645 c0 -2 6 -8 13 -14 10 -8 14 -7 14 2 0 8 -6 14 -14 14 -7
0 -13 -1 -13 -2z"/>
<path d="M5827 8570 c15 -22 29 -38 31 -35 5 4 -45 75 -53 75 -2 0 8 -18 22
-40z"/>
<path d="M2935 8566 c22 -19 42 -32 44 -30 6 6 -61 63 -74 63 -5 1 8 -15 30
-33z"/>
<path d="M3530 8586 c0 -8 4 -17 9 -20 5 -4 7 3 4 14 -6 23 -13 26 -13 6z"/>
<path d="M3850 8579 c0 -5 32 -45 72 -87 39 -42 77 -83 83 -90 9 -11 12 -10
12 2 0 8 -4 13 -8 11 -4 -3 -14 6 -22 19 -9 13 -24 31 -33 41 -10 10 -19 25
-21 34 -1 9 -15 27 -30 40 -15 13 -21 20 -13 15 13 -7 13 -5 1 9 -15 19 -41
23 -41 6z m68 -59 c17 -27 10 -25 -19 6 -13 14 -17 23 -9 19 9 -3 21 -14 28
-25z"/>
<path d="M5210 8576 c0 -2 7 -9 15 -16 13 -11 14 -10 9 4 -5 14 -24 23 -24 12z"/>
<path d="M3304 8525 c27 -19 54 -35 60 -35 5 0 -13 16 -40 35 -27 19 -53 35
-59 35 -5 0 12 -16 39 -35z"/>
<path d="M2744 8535 c11 -8 27 -15 35 -15 10 1 7 6 -9 15 -33 19 -50 18 -26 0z"/>
<path d="M2939 8532 c6 -12 16 -24 22 -28 8 -4 8 -1 0 14 -6 12 -16 24 -22 28
-8 4 -8 1 0 -14z"/>
<path d="M3510 8530 c6 -11 15 -20 20 -20 6 0 2 9 -7 20 -10 11 -19 20 -21 20
-1 0 2 -9 8 -20z"/>
<path d="M5551 8530 c7 -14 12 -29 11 -34 -2 -5 4 -16 13 -26 8 -9 12 -20 8
-25 -5 -4 -3 -5 4 -2 6 4 13 4 15 0 1 -5 18 -18 35 -31 27 -19 31 -19 26 -5
-6 16 -5 17 13 3 19 -14 19 -14 1 7 -11 12 -25 19 -34 16 -8 -3 -19 0 -23 8
-12 19 -1 32 16 19 7 -7 19 -10 26 -8 7 3 -7 17 -32 33 -25 15 -56 37 -69 49
l-24 21 14 -25z"/>
<path d="M5656 8537 c3 -10 9 -15 12 -12 3 3 0 11 -7 18 -10 9 -11 8 -5 -6z"/>
<path d="M5231 8523 c-1 -17 -5 -21 -18 -16 -15 5 -16 3 -5 -8 16 -17 36 1 29
27 -4 16 -5 15 -6 -3z"/>
<path d="M7216 8512 c-4 -10 -22 -45 -42 -78 -23 -37 -31 -60 -24 -62 9 -3 8
-7 -1 -13 -8 -5 -9 -9 -3 -9 6 0 18 8 25 17 10 11 10 14 2 9 -19 -11 -16 -1
12 40 14 20 29 52 35 72 10 37 6 58 -4 24z"/>
<path d="M3211 8516 c2 -2 15 -9 29 -15 24 -11 24 -11 6 3 -16 13 -49 24 -35
12z"/>
<path d="M3615 8511 c-6 -11 13 -26 22 -17 4 3 1 6 -6 6 -7 0 -9 5 -6 10 3 6
4 10 1 10 -3 0 -7 -4 -11 -9z"/>
<path d="M3065 8500 c6 -10 60 -41 70 -40 28 1 35 -1 30 -10 -3 -5 1 -10 9
-10 9 0 16 4 16 9 0 11 -25 32 -42 35 -7 1 -23 7 -35 14 -26 15 -57 16 -48 2z"/>
<path d="M3740 8491 c0 -12 42 -42 49 -36 5 6 -29 45 -41 45 -4 0 -8 -4 -8 -9z"/>
<path d="M5306 8487 c3 -10 9 -15 12 -12 3 3 0 11 -7 18 -10 9 -11 8 -5 -6z"/>
<path d="M5255 8450 c21 -24 26 -25 19 -6 -3 8 -13 17 -22 21 -13 5 -13 2 3
-15z"/>
<path d="M2920 8452 c0 -5 12 -19 27 -33 15 -13 22 -17 15 -8 -6 9 -9 18 -6
22 3 3 -4 10 -15 17 -12 6 -21 7 -21 2z"/>
<path d="M3517 8449 c7 -7 15 -10 18 -7 3 3 -2 9 -12 12 -14 6 -15 5 -6 -5z"/>
<path d="M5129 8403 c40 -48 91 -91 91 -78 0 14 -61 77 -105 108 -26 19 -24
14 14 -30z"/>
<path d="M5374 8438 c-4 -7 -4 -10 1 -6 4 4 15 2 24 -5 14 -11 14 -10 2 6 -16
20 -18 21 -27 5z"/>
<path d="M3800 8426 c0 -2 7 -7 16 -10 8 -3 12 -2 9 4 -6 10 -25 14 -25 6z"/>
<path d="M3020 8406 c0 -16 39 -66 40 -51 0 6 -7 20 -15 33 -14 20 -14 21 0
16 8 -3 15 -11 15 -17 0 -6 3 -7 6 -4 9 9 -15 37 -32 37 -8 0 -14 -6 -14 -14z"/>
<path d="M3226 8413 c-10 -11 -7 -21 10 -27 8 -3 13 -2 9 3 -3 5 0 11 7 13 8
3 6 6 -4 10 -9 4 -19 4 -22 1z"/>
<path d="M3390 8416 c0 -3 9 -10 20 -16 11 -6 20 -8 20 -6 0 3 -9 10 -20 16
-11 6 -20 8 -20 6z"/>
<path d="M5891 8403 c7 -12 15 -20 18 -17 3 2 -3 12 -13 22 -17 16 -18 16 -5
-5z"/>
<path d="M3624 8388 c8 -13 17 -38 21 -55 4 -18 11 -33 16 -33 5 0 9 -5 9 -10
0 -7 -7 -7 -21 0 -11 6 -25 9 -32 6 -7 -2 -5 -5 4 -5 9 -1 29 -11 44 -23 l28
-22 -7 24 c-4 14 -8 35 -10 46 -2 12 -15 38 -31 58 -31 40 -43 48 -21 14z"/>
<path d="M2860 8395 c0 -10 61 -35 72 -29 6 4 8 3 5 -3 -6 -10 60 -70 68 -62
1 2 -2 20 -9 39 -7 24 -17 35 -31 36 -12 1 -30 6 -42 13 -22 11 -63 15 -63 6z"/>
<path d="M5420 8373 c58 -77 60 -79 53 -58 -8 25 -55 85 -66 85 -5 0 1 -12 13
-27z"/>
<path d="M4020 8370 c0 -6 9 -18 19 -27 11 -9 17 -21 15 -27 -5 -13 55 -90 64
-81 3 3 14 -3 25 -12 16 -14 14 -8 -8 32 -15 28 -36 57 -46 66 -10 9 -15 20
-11 24 8 8 -26 35 -45 35 -7 0 -13 -5 -13 -10z"/>
<path d="M3980 8366 c0 -2 8 -10 18 -17 15 -13 16 -12 3 4 -13 16 -21 21 -21
13z"/>
<path d="M4280 8325 c19 -19 36 -35 39 -35 3 0 -10 16 -29 35 -19 19 -36 35
-39 35 -3 0 10 -16 29 -35z"/>
<path d="M3060 8336 c0 -2 7 -9 15 -16 13 -11 14 -10 9 4 -5 14 -24 23 -24 12z"/>
<path d="M7106 8311 c-16 -16 -25 -34 -21 -40 3 -7 1 -10 -5 -9 -7 2 -16 -8
-22 -22 -8 -23 -6 -22 27 10 19 19 34 39 31 45 -2 5 3 18 12 28 25 28 8 19
-22 -12z"/>
<path d="M4196 8311 c-19 -21 -21 -42 -3 -38 6 1 11 -2 10 -8 -1 -5 12 -11 28
-12 17 -1 29 3 29 10 0 7 4 6 10 -3 9 -13 10 -13 10 1 0 14 -30 47 -56 62 -6
4 -19 -2 -28 -12z"/>
<path d="M3707 8309 c7 -7 15 -10 18 -7 3 3 -2 9 -12 12 -14 6 -15 5 -6 -5z"/>
<path d="M7315 8278 c-46 -24 -128 -88 -121 -95 2 -3 25 9 50 26 24 17 48 31
53 31 12 1 68 48 63 54 -3 2 -23 -5 -45 -16z"/>
<path d="M3453 8279 c10 -6 21 -8 25 -5 3 3 17 -4 31 -16 l26 -22 -22 23 c-12
13 -34 25 -50 27 -24 2 -25 1 -10 -7z"/>
<path d="M3816 8253 c-3 -4 8 -13 25 -20 41 -17 46 -12 10 10 -15 9 -31 14
-35 10z"/>
<path d="M7280 8198 c-36 -33 -52 -51 -36 -39 16 11 37 21 46 21 17 0 40 27
53 63 3 9 5 17 4 17 -1 -1 -31 -28 -67 -62z"/>
<path d="M2840 8234 c0 -11 4 -24 8 -30 9 -13 93 -56 99 -50 2 2 -17 15 -43
27 -59 30 -35 37 29 9 26 -11 50 -21 54 -21 5 0 16 -8 26 -16 27 -25 20 1 -7
26 -15 14 -30 20 -37 16 -7 -5 -10 -4 -5 3 4 6 -15 17 -46 28 -29 9 -59 19
-65 22 -8 2 -13 -4 -13 -14z"/>
<path d="M4220 8236 c0 -2 7 -9 15 -16 13 -11 14 -10 9 4 -5 14 -24 23 -24 12z"/>
<path d="M3354 8219 c-4 -7 -3 -9 4 -5 6 3 13 2 17 -4 4 -6 11 -8 16 -4 5 3
18 0 27 -7 15 -12 15 -11 2 3 -21 22 -57 31 -66 17z"/>
<path d="M7066 8154 c-34 -40 -55 -73 -52 -81 4 -8 6 -21 6 -29 0 -8 5 -14 10
-14 11 0 70 122 70 143 0 6 7 19 17 29 9 10 14 18 11 18 -2 0 -30 -30 -62 -66z"/>
<path d="M2850 8142 c0 -5 14 -21 30 -37 35 -33 39 -26 9 16 -19 28 -39 38
-39 21z"/>
<path d="M7321 8104 c-12 -20 -20 -39 -17 -41 2 -3 12 10 22 29 9 18 22 36 28
40 8 6 8 8 -1 8 -6 0 -21 -16 -32 -36z"/>
<path d="M3215 8120 l-50 -7 47 -1 c26 -1 50 3 53 8 3 6 5 9 3 8 -2 0 -25 -4
-53 -8z"/>
<path d="M7269 8033 c-13 -16 -12 -17 4 -4 16 13 21 21 13 21 -2 0 -10 -8 -17
-17z"/>
<path d="M2680 8021 c-21 -6 -15 -9 35 -18 33 -6 62 -10 63 -8 5 5 -55 35 -65
34 -4 -1 -19 -4 -33 -8z"/>
<path d="M7225 7968 c-16 -24 -22 -38 -14 -31 15 12 53 73 46 73 -2 0 -17 -19
-32 -42z"/>
<path d="M3005 7950 c3 -5 11 -10 16 -10 6 0 7 5 4 10 -3 6 -11 10 -16 10 -6
0 -7 -4 -4 -10z"/>
<path d="M2610 7944 c0 -6 103 -54 107 -51 2 3 -8 14 -23 26 -31 25 -24 28 11
5 15 -10 25 -12 25 -5 0 6 -5 11 -11 11 -5 0 -7 4 -4 10 4 6 -16 9 -49 7 -31
-1 -56 -3 -56 -3z"/>
<path d="M2955 7930 c10 -11 20 -20 23 -20 3 0 -3 9 -13 20 -10 11 -20 20 -23
20 -3 0 3 -9 13 -20z"/>
<path d="M2480 7936 c0 -2 6 -9 14 -15 10 -9 16 -8 26 4 11 13 8 15 -14 15
-14 0 -26 -2 -26 -4z"/>
<path d="M3406 7928 c4 -5 12 -7 20 -4 8 3 14 1 14 -4 0 -6 10 -10 22 -10 17
0 19 3 10 12 -13 13 -74 19 -66 6z"/>
<path d="M2546 7905 c10 -8 24 -15 29 -15 6 0 39 -14 73 -30 86 -40 101 -37
27 5 -33 19 -72 35 -87 35 -15 0 -30 5 -33 10 -3 6 -11 10 -18 10 -6 0 -2 -7
9 -15z"/>
<path d="M2765 7908 c8 -20 108 -55 113 -40 2 8 10 9 20 3 9 -5 25 -6 35 -2
29 11 -47 42 -116 49 -48 4 -56 2 -52 -10z"/>
<path d="M2458 7873 c12 -2 30 -2 40 0 9 3 -1 5 -23 4 -22 0 -30 -2 -17 -4z"/>
<path d="M2452 7836 c39 -23 103 -32 127 -17 25 16 -42 41 -106 41 l-58 -1 37
-23z m108 0 c0 -2 -9 -6 -20 -9 -11 -3 -20 -1 -20 4 0 5 9 9 20 9 11 0 20 -2
20 -4z"/>
<path d="M2990 7856 c0 -2 8 -10 18 -17 15 -13 16 -12 3 4 -13 16 -21 21 -21
13z"/>
<path d="M2654 7816 c11 -9 24 -16 30 -16 12 0 7 5 -24 19 -24 11 -24 11 -6
-3z"/>
<path d="M2620 7785 c53 -17 68 -19 55 -6 -6 6 -30 13 -55 16 l-45 5 45 -15z"/>
<path d="M3168 7763 c7 -3 16 -2 19 1 4 3 -2 6 -13 5 -11 0 -14 -3 -6 -6z"/>
<path d="M2608 7743 c6 -2 18 -2 25 0 6 3 1 5 -13 5 -14 0 -19 -2 -12 -5z"/>
<path d="M3149 7737 c8 -9 16 -15 19 -13 2 3 24 -8 48 -24 46 -32 94 -54 94
-43 0 16 -53 51 -67 46 -11 -4 -14 -2 -9 5 5 8 0 12 -13 12 -11 0 -23 5 -26
11 -4 6 -13 8 -20 5 -7 -2 -19 1 -26 7 -10 10 -10 8 0 -6z"/>
<path d="M2675 7711 c10 -20 23 -31 37 -31 21 0 21 0 2 21 -10 11 -27 25 -37
31 -17 9 -17 8 -2 -21z"/>
<path d="M2762 7664 c10 -10 20 -15 24 -12 3 4 -5 12 -18 18 -22 12 -22 12 -6
-6z"/>
<path d="M2700 7640 c8 -5 20 -10 25 -10 6 0 3 5 -5 10 -8 5 -19 10 -25 10 -5
0 -3 -5 5 -10z"/>
<path d="M2931 7631 c33 -25 70 -44 76 -38 6 7 -72 57 -88 57 -7 0 -1 -8 12
-19z"/>
<path d="M2635 7560 c-4 -6 -10 -8 -15 -5 -11 7 -170 -57 -170 -68 0 -5 24 -6
53 -3 28 3 79 8 112 11 107 9 131 25 30 19 -49 -3 -101 -7 -113 -10 -13 -3
-21 -1 -18 4 3 5 33 15 66 22 62 13 113 39 78 40 -9 0 -20 -5 -23 -10z"/>
<path d="M2685 7466 c-16 -12 -16 -13 6 -10 13 1 37 3 53 3 35 1 32 6 -10 14
-19 4 -39 1 -49 -7z"/>
<path d="M3000 7370 c0 -5 5 -10 11 -10 5 0 7 5 4 10 -3 6 -8 10 -11 10 -2 0
-4 -4 -4 -10z"/>
<path d="M2420 7355 c0 -16 27 -20 48 -6 10 6 8 10 -10 14 -34 10 -38 9 -38
-8z"/>
<path d="M2996 7307 c-15 -11 -16 -15 -5 -19 20 -8 89 5 92 17 3 16 -66 17
-87 2z"/>
<path d="M2280 7294 c60 -8 130 -8 130 -1 0 4 -35 6 -77 6 -43 -1 -67 -3 -53
-5z"/>
<path d="M2864 7203 c11 -13 25 -23 31 -23 7 0 18 -7 25 -15 7 -8 18 -15 24
-15 13 0 -34 39 -48 40 -5 0 -19 8 -30 18 -21 17 -21 17 -2 -5z"/>
<path d="M2953 7170 c14 -11 29 -20 33 -20 4 0 -2 9 -14 20 -12 11 -26 20 -33
20 -6 0 0 -9 14 -20z"/>
<path d="M2872 7143 c-23 -8 -40 -18 -38 -21 2 -4 -10 -7 -27 -8 -18 -1 -48
-9 -67 -18 -20 -9 -26 -14 -13 -12 12 2 23 0 25 -4 3 -7 55 6 178 45 25 7 36
14 25 14 -12 1 -25 5 -30 10 -6 5 -28 2 -53 -6z"/>
<path d="M2468 7093 c7 -3 16 -2 19 1 4 3 -2 6 -13 5 -11 0 -14 -3 -6 -6z"/>
<path d="M2715 6970 c17 -4 53 -8 80 -7 l50 0 -50 7 c-27 5 -63 8 -80 8 l-30
0 30 -8z"/>
<path d="M2620 6946 c0 -2 8 -10 18 -17 15 -13 16 -12 3 4 -13 16 -21 21 -21
13z"/>
<path d="M2290 6910 c-8 -5 -12 -12 -9 -15 4 -3 12 1 19 10 14 17 11 19 -10 5z"/>
<path d="M2588 6903 c6 -2 18 -2 25 0 6 3 1 5 -13 5 -14 0 -19 -2 -12 -5z"/>
<path d="M2540 6820 l-45 -7 40 -1 c22 -1 47 3 55 8 8 5 11 9 5 8 -5 0 -30 -4
-55 -8z"/>
<path d="M2450 6765 c-19 -7 -28 -13 -20 -13 8 0 31 6 50 13 19 7 28 13 20 13
-8 0 -31 -6 -50 -13z"/>
<path d="M2376 6741 c-4 -5 3 -7 14 -4 23 6 26 13 6 13 -8 0 -17 -4 -20 -9z"/>
<path d="M2410 6711 c0 -9 57 -21 104 -21 28 0 29 1 10 15 -20 15 -114 21
-114 6z"/>
<path d="M2789 6673 l-24 -27 33 23 c32 23 39 31 24 31 -5 0 -19 -12 -33 -27z"/>
<path d="M2380 6619 c-53 -9 -115 -42 -124 -66 -3 -8 3 -9 22 -3 65 19 141 52
152 65 7 8 11 14 9 14 -2 -1 -29 -5 -59 -10z"/>
<path d="M2519 6493 c-13 -16 -12 -17 4 -4 9 7 17 15 17 17 0 8 -8 3 -21 -13z"/>
<path d="M2606 6323 l-37 -58 35 34 c20 19 34 37 31 39 -2 3 0 13 6 23 19 37
3 18 -35 -38z"/>
<path d="M2650 6350 c0 -6 10 -9 23 -7 12 2 17 2 12 0 -6 -2 -17 -18 -25 -36
-7 -18 -15 -36 -18 -42 -2 -5 4 1 13 15 10 14 29 37 43 53 l26 27 -37 0 c-20
0 -37 -5 -37 -10z"/>
<path d="M2339 6253 c-13 -16 -12 -17 4 -4 9 7 17 15 17 17 0 8 -8 3 -21 -13z"/>
<path d="M2325 6222 c-12 -9 -18 -52 -6 -52 8 0 33 25 45 48 8 13 -22 17 -39
4z"/>
<path d="M2387 6141 c-39 -18 -121 -91 -112 -99 4 -5 66 39 95 68 8 8 27 23
40 32 32 21 25 21 -23 -1z"/>
<path d="M2692 6113 c-15 -15 -20 -22 -11 -15 10 8 22 11 27 8 5 -3 15 1 21 8
23 28 -8 27 -37 -1z"/>
<path d="M2547 6007 c-67 -53 -107 -90 -103 -95 9 -9 72 38 104 78 38 46 38
48 -1 17z"/>
<path d="M2374 6006 c-10 -8 -16 -17 -13 -20 3 -3 14 3 24 14 21 23 17 26 -11
6z"/>
<path d="M2663 5860 c-34 -14 -28 -21 7 -9 17 6 30 13 30 15 0 6 -12 4 -37 -6z"/>
<path d="M2533 5819 c-24 -12 -43 -25 -43 -29 0 -9 68 24 84 40 15 15 6 12
-41 -11z"/>
<path d="M2218 5813 c7 -3 16 -2 19 1 4 3 -2 6 -13 5 -11 0 -14 -3 -6 -6z"/>
<path d="M2405 5770 c-3 -5 -2 -10 4 -10 5 0 13 5 16 10 3 6 2 10 -4 10 -5 0
-13 -4 -16 -10z"/>
<path d="M2575 5720 c-18 -20 -15 -38 4 -25 15 9 33 45 23 45 -5 0 -17 -9 -27
-20z"/>
<path d="M2725 5655 c-28 -18 -57 -40 -65 -50 -7 -9 14 2 47 24 34 22 64 45
68 51 9 14 7 13 -50 -25z"/>
<path d="M2676 5560 c-16 -11 -31 -26 -32 -34 -3 -24 9 -19 46 19 37 38 31 44
-14 15z"/>
<path d="M2853 5508 c-15 -18 -35 -58 -29 -58 2 0 13 16 25 35 20 35 22 46 4
23z"/>
<path d="M2684 5484 c-18 -14 -18 -15 4 -4 12 6 22 13 22 15 0 8 -5 6 -26 -11z"/>
<path d="M2947 5453 c-21 -41 -9 -62 14 -26 10 15 19 34 19 41 0 21 -19 13
-33 -15z"/>
<path d="M2679 5426 c-25 -19 -49 -44 -52 -55 -7 -28 2 -26 38 7 26 23 71 83
63 82 -2 0 -24 -16 -49 -34z"/>
<path d="M2942 5264 c-23 -16 -29 -34 -12 -34 6 0 10 5 10 11 0 7 8 18 18 25
24 19 11 17 -16 -2z"/>
<path d="M2890 5185 c-23 -24 -35 -65 -19 -65 4 0 17 14 29 30 13 18 17 30 9
30 -9 0 -8 4 1 15 20 25 5 17 -20 -10z"/>
<path d="M2781 5118 c-19 -13 -40 -33 -48 -45 -15 -22 -14 -22 18 -13 41 12
72 42 67 64 -3 16 -7 15 -37 -6z"/>
<path d="M2861 5036 c-35 -37 -51 -63 -51 -81 0 -16 4 -24 10 -20 6 4 8 15 5
25 -3 10 -1 21 4 25 7 4 9 -1 5 -12 -3 -11 5 -6 20 12 14 17 21 32 15 34 -6 2
-1 8 12 15 12 6 29 21 37 34 27 40 -4 23 -57 -32z"/>
<path d="M2779 4983 c-13 -16 -12 -17 4 -4 16 13 21 21 13 21 -2 0 -10 -8 -17
-17z"/>
<path d="M2693 4938 c-6 -7 -16 -24 -22 -38 -12 -24 -12 -24 4 -5 20 24 37 55
32 55 -3 0 -9 -6 -14 -12z"/>
<path d="M2830 4890 c-6 -11 -7 -20 -2 -20 6 0 12 9 15 20 3 11 3 20 1 20 -2
0 -8 -9 -14 -20z"/>
<path d="M2805 4852 c-5 -4 -17 -16 -25 -27 -11 -15 -7 -14 13 4 24 22 32 31
25 31 -2 0 -7 -4 -13 -8z"/>
<path d="M2819 4799 l-24 -20 28 17 c15 9 27 18 27 20 0 8 -8 4 -31 -17z"/>
<path d="M2900 4688 c-12 -22 -12 -22 6 -6 10 10 15 20 12 24 -4 3 -12 -5 -18
-18z"/>
<path d="M3130 4690 c0 -5 7 -7 15 -4 8 4 15 8 15 10 0 2 -7 4 -15 4 -8 0 -15
-4 -15 -10z"/>
<path d="M2960 4635 c-7 -9 -10 -18 -7 -21 3 -3 10 4 17 15 13 25 8 27 -10 6z"/>
<path d="M3002 4597 c-12 -7 -19 -17 -15 -22 4 -4 3 -5 -4 -1 -7 4 -30 -2 -52
-14 -45 -22 -72 -25 -88 -9 -24 24 -25 -87 -2 -160 l11 -34 36 67 c20 38 62
93 95 127 59 58 64 71 19 46z"/>
<path d="M2920 4589 c0 -5 5 -7 10 -4 6 3 10 8 10 11 0 2 -4 4 -10 4 -5 0 -10
-5 -10 -11z"/>
<path d="M3174 4410 c0 -13 4 -16 10 -10 7 7 7 13 0 20 -6 6 -10 3 -10 -10z"/>
<path d="M3141 4374 c0 -11 3 -14 6 -6 3 7 2 16 -1 19 -3 4 -6 -2 -5 -13z"/>
<path d="M3231 4374 c0 -11 3 -14 6 -6 3 7 2 16 -1 19 -3 4 -6 -2 -5 -13z"/>
<path d="M2930 4306 c-12 -20 -20 -42 -17 -49 2 -6 14 8 25 32 27 55 22 65 -8
17z"/>
<path d="M3035 4273 l-17 -28 23 22 c12 12 20 25 17 28 -3 3 -13 -7 -23 -22z"/>
<path d="M3032 4212 c-13 -15 -21 -21 -17 -14 3 6 2 12 -4 12 -13 0 -31 -33
-31 -56 0 -14 8 -10 36 17 37 35 60 69 47 68 -4 0 -18 -12 -31 -27z"/>
<path d="M3098 4203 c-20 -23 -51 -84 -45 -89 2 -3 12 10 20 28 9 18 17 27 17
20 0 -16 -22 -55 -37 -65 -7 -4 -13 -18 -13 -30 0 -18 2 -19 10 -7 8 12 10 12
10 -5 0 -15 6 -11 26 19 19 27 27 53 29 92 1 30 1 54 0 54 -1 0 -9 -8 -17 -17z"/>
<path d="M3107 4061 c-15 -22 -28 -50 -30 -63 -2 -13 -2 -17 0 -9 4 11 7 11
13 1 11 -18 52 63 43 86 -5 13 -3 15 7 9 9 -5 11 -4 6 3 -10 17 -10 16 -39
-27z m23 -1 c0 -5 -5 -10 -11 -10 -5 0 -7 5 -4 10 3 6 8 10 11 10 2 0 4 -4 4
-10z m-28 -52 c-7 -7 -12 -8 -12 -2 0 6 3 14 7 17 3 4 9 5 12 2 2 -3 -1 -11
-7 -17z"/>
<path d="M3282 4040 c0 -14 2 -19 5 -12 2 6 2 18 0 25 -3 6 -5 1 -5 -13z"/>
<path d="M3386 4013 c-6 -14 -5 -15 5 -6 7 7 10 15 7 18 -3 3 -9 -2 -12 -12z"/>
<path d="M3126 3984 c-9 -24 -2 -26 12 -4 7 11 8 20 3 20 -5 0 -12 -7 -15 -16z"/>
<path d="M3170 3945 c-6 -8 -10 -19 -8 -26 2 -6 9 0 16 15 13 29 10 33 -8 11z"/>
<path d="M3276 3933 c-19 -69 -19 -69 7 -33 24 33 26 50 7 50 -5 0 -11 -8 -14
-17z"/>
<path d="M3122 3910 c0 -14 2 -19 5 -12 2 6 2 18 0 25 -3 6 -5 1 -5 -13z"/>
<path d="M3190 3845 c-6 -8 -10 -18 -7 -22 3 -4 -6 -22 -20 -38 -24 -28 -25
-28 -9 -3 9 15 16 35 15 45 0 10 -9 -2 -20 -26 -26 -59 -10 -73 25 -20 35 52
47 102 16 64z"/>
<path d="M3081 3775 c-29 -44 -24 -60 11 -32 15 11 36 77 25 77 -3 0 -19 -20
-36 -45z"/>
<path d="M3226 3763 c-6 -14 -5 -15 5 -6 7 7 10 15 7 18 -3 3 -9 -2 -12 -12z"/>
<path d="M3138 3653 c-17 -20 -30 -63 -19 -63 11 0 46 68 40 75 -3 3 -13 -3
-21 -12z"/>
<path d="M3195 3621 c-12 -23 -12 -31 -2 -37 6 -4 9 -4 5 1 -4 4 -1 20 8 36 8
16 12 29 10 29 -3 0 -12 -13 -21 -29z"/>
<path d="M3155 3549 c-9 -17 -14 -36 -12 -42 4 -13 26 24 32 54 6 28 -2 23
-20 -12z"/>
<path d="M7295 7750 c-3 -5 -2 -10 4 -10 5 0 13 5 16 10 3 6 2 10 -4 10 -5 0
-13 -4 -16 -10z"/>
<path d="M7205 7620 c-10 -11 -16 -22 -13 -25 3 -3 13 6 22 20 20 30 16 32 -9
5z"/>
<path d="M3760 7896 c0 -2 8 -10 18 -17 15 -13 16 -12 3 4 -13 16 -21 21 -21
13z"/>
<path d="M7481 7426 c-32 -33 -33 -34 -11 -41 28 -9 64 20 42 34 -11 7 -11 9
2 14 16 7 22 27 8 27 -4 0 -23 -15 -41 -34z"/>
<path d="M6865 7080 c10 -11 20 -20 23 -20 3 0 -3 9 -13 20 -10 11 -20 20 -23
20 -3 0 3 -9 13 -20z"/>
<path d="M6912 7053 c-8 -14 -9 -24 -2 -28 12 -7 24 18 18 37 -3 8 -9 5 -16
-9z"/>
<path d="M7027 7013 c-4 -3 -1 -13 6 -21 10 -13 9 -15 -5 -9 -12 4 -18 1 -18
-9 0 -11 4 -12 19 -4 25 13 37 31 19 28 -7 -2 -12 3 -10 10 2 13 -1 15 -11 5z"/>
<path d="M6771 6940 c0 -33 1 -34 11 -12 8 17 8 26 0 34 -9 9 -12 4 -11 -22z"/>
<path d="M6791 6877 c-10 -30 -10 -42 -1 -50 8 -9 10 -8 4 6 -3 9 -1 24 6 32
6 8 10 22 8 32 -3 12 -8 6 -17 -20z"/>
<path d="M7565 6880 c3 -5 11 -10 16 -10 6 0 7 5 4 10 -3 6 -11 10 -16 10 -6
0 -7 -4 -4 -10z"/>
<path d="M6800 6848 c0 -7 5 -20 10 -28 8 -12 10 -9 10 13 0 15 -4 27 -10 27
-5 0 -10 -6 -10 -12z"/>
<path d="M7729 6701 c11 -30 25 -59 30 -64 6 -6 0 16 -13 47 -30 73 -44 87
-17 17z"/>
<path d="M6954 6634 c-10 -8 -13 -13 -7 -9 7 3 27 2 45 -3 26 -6 37 -5 49 8
15 16 13 17 -26 18 -25 1 -49 -4 -61 -14z m69 -1 c-7 -2 -21 -2 -30 0 -10 3
-4 5 12 5 17 0 24 -2 18 -5z"/>
<path d="M7870 6634 c0 -14 21 -42 35 -48 11 -4 9 3 -7 24 -22 30 -28 35 -28
24z"/>
<path d="M7674 6447 c-8 -21 2 -35 16 -21 5 5 6 15 0 24 -8 12 -10 12 -16 -3z"/>
<path d="M6680 6733 c0 -18 20 -66 25 -61 3 3 -1 20 -9 39 -9 19 -15 29 -16
22z"/>
<path d="M8585 6259 c17 -47 55 -112 62 -106 5 5 -64 147 -72 147 -2 0 2 -19
10 -41z"/>
<path d="M6433 5738 c-20 -26 -26 -41 -15 -34 12 7 36 46 29 46 -3 0 -9 -6
-14 -12z"/>
<path d="M6231 5569 c-11 -12 -18 -25 -16 -28 3 -3 15 5 27 17 12 12 19 24 16
27 -3 4 -15 -4 -27 -16z"/>
<path d="M5560 5213 c0 -10 5 -25 10 -33 8 -13 10 -12 10 4 0 12 5 16 16 12
10 -4 14 -1 12 6 -3 7 -9 13 -14 13 -5 0 -15 4 -21 8 -9 6 -13 2 -13 -10z"/>
<path d="M5470 5116 c0 -8 31 -36 40 -36 4 0 6 9 3 20 -4 16 -43 30 -43 16z"/>
<path d="M6441 3454 c13 -16 29 -19 29 -5 0 5 -9 11 -21 14 -16 4 -18 3 -8 -9z"/>
<path d="M6480 3207 c0 -19 16 -31 24 -18 3 5 -1 14 -9 21 -12 10 -15 10 -15
-3z"/>
</g>
</svg>
